<?xml version="1.0" encoding="UTF-8"?>
<svg id="Capa_1" xmlns="http://www.w3.org/2000/svg" version="1.1" xmlns:xlink="http://www.w3.org/1999/xlink" viewBox="0 0 512 512">
  <!-- Generator: Adobe Illustrator 29.1.0, SVG Export Plug-In . SVG Version: 2.1.0 Build 142)  -->
  <defs>
    <style>
      .st0 {
        fill: url(#Nueva_muestra_de_degradado_1);
      }
    </style>
    <linearGradient id="Nueva_muestra_de_degradado_1" data-name="Nueva muestra de degradado 1" x1="72.3" y1="19.4" x2="439.6" y2="386.7" gradientUnits="userSpaceOnUse">
      <stop offset="0" stop-color="#3c36ff"/>
      <stop offset="1" stop-color="#fe37a7"/>
    </linearGradient>
  </defs>
  <path class="st0" d="M251,.7c3.3-.9,6.8-.9,10.2,0l217.5,61.2c7.7,2.2,13.1,9,13.1,16.8v125.4c0,139.3-92.7,263-230,307.1-3.7,1.2-7.7,1.2-11.5,0C112.9,467.1,20.2,343.3,20.2,204v-125.4c0-7.8,5.3-14.6,13.1-16.8L251,.7ZM56.5,91.7v112.3c0,122.4,80.1,231.3,199.5,272.1,119.4-40.9,199.5-149.7,199.5-272.1v-112.3l-199.4-56.1L56.5,91.7ZM343.3,220.9c.3,0,.6,0,.9-.1.3,0,.6-.1,1-.2.3,0,.5-.1.8-.2.3,0,.6-.2.9-.3.3,0,.5-.2.8-.3s.6-.2.8-.4c.3-.1.5-.2.8-.4.3-.1.5-.3.8-.5.2-.1.5-.3.7-.4.3-.2.6-.4.9-.6.2-.1.4-.3.6-.4.9-.7,1.8-1.6,2.5-2.4.1-.2.3-.4.4-.5.2-.3.4-.5.6-.8.2-.2.3-.5.4-.7.2-.3.3-.5.5-.8.1-.2.3-.5.4-.7.1-.3.3-.5.4-.8.1-.2.2-.5.3-.7.1-.3.2-.6.3-.9,0-.2.1-.5.2-.7,0-.3.2-.6.2-.9s0-.6.1-.8c0-.3,0-.6.1-.8v-3.4c0-.3,0-.6-.1-.8,0-.3,0-.6-.1-.8,0-.3-.2-.6-.2-.9s-.1-.5-.2-.7c0-.3-.2-.6-.3-.9,0-.2-.2-.5-.3-.7-.1-.3-.3-.5-.4-.8s-.2-.5-.4-.8c-.1-.3-.3-.5-.5-.7s-.3-.5-.5-.7c-.2-.3-.4-.5-.6-.8-.2-.2-.3-.4-.4-.6-.4-.4-.8-.9-1.2-1.3l-60.5-58.2c-7.1-6.8-18.6-6.8-25.6,0s-7.1,17.9,0,24.7l29.5,28.4h-125.5c-10,0-18.1,7.8-18.1,17.5s8.1,17.5,18.1,17.5h171.1c.3,0,.6,0,.9-.1v-.6ZM340.6,256h-171.1c-.3,0-.6,0-.9.1-.3,0-.6,0-.9.1-.3,0-.6.1-.9.2-.3,0-.5.1-.8.2-.3,0-.6.2-.9.3-.3,0-.5.2-.8.3-.3.1-.5.2-.8.4-.3.1-.5.2-.8.4-.3.1-.5.3-.8.4s-.5.3-.8.4c-.3.2-.6.4-.8.6-.2.1-.4.3-.6.4-.9.7-1.8,1.5-2.5,2.4-.2.2-.3.4-.5.6-.2.3-.4.5-.6.8-.2.2-.3.5-.5.7-.1.2-.3.5-.4.7-.1.3-.3.5-.4.8-.1.3-.3.5-.4.8-.1.3-.2.5-.3.8s-.2.6-.3.8c0,.3-.1.5-.2.8,0,.3-.2.6-.2.9s0,.6-.1.9c0,.3,0,.5-.1.8v1.7h0v1.7c0,.3,0,.5.1.8,0,.3,0,.6.1.9,0,.3.1.6.2.9,0,.3.1.5.2.8,0,.3.2.6.3.8,0,.3.2.5.3.8s.2.5.4.8c.1.3.2.5.4.8.1.2.3.5.4.7.2.2.3.5.5.7.2.3.4.5.6.8.2.2.3.4.5.6.4.4.8.9,1.2,1.3l60.5,58.2c7.1,6.8,18.6,6.8,25.6,0,7.1-6.8,7.1-17.9,0-24.7l-29.5-28.4h125.5c10,0,18.1-7.8,18.1-17.5s-8.1-17.5-18.1-17.5v.2Z"/>
</svg>