<?xml version="1.0" encoding="UTF-8"?>
<svg id="Capa_1" xmlns="http://www.w3.org/2000/svg" version="1.1" xmlns:xlink="http://www.w3.org/1999/xlink" viewBox="0 0 511 511">
  <!-- Generator: Adobe Illustrator 29.1.0, SVG Export Plug-In . SVG Version: 2.1.0 Build 142)  -->
  <defs>
    <style>
      .st0 {
        fill: url(#Nueva_muestra_de_degradado_1);
      }
    </style>
    <linearGradient id="Nueva_muestra_de_degradado_1" data-name="Nueva muestra de degradado 1" x1="70.5" y1="71.5" x2="439" y2="440" gradientUnits="userSpaceOnUse">
      <stop offset="0" stop-color="#3c36ff"/>
      <stop offset="1" stop-color="#fe37a7"/>
    </linearGradient>
  </defs>
  <path class="st0" d="M28.7,206.2c1.8.7,3.7,1.1,5.6,1.1s4-.4,5.8-1.2l44.7-18.9c7.6-3.2,11.2-12,8-19.6-3.2-7.6-12-11.2-19.6-8l-10.9,4.6c33.9-77.2,110.7-128,196.1-128s182.9,66,207.3,160.5c1.7,6.7,7.8,11.2,14.5,11.2s2.5-.2,3.8-.5c8-2.1,12.8-10.2,10.7-18.2C466.7,81.7,369.6,6.5,258.3,6.5S72.6,65,34.3,153.8l-5-12c-3.2-7.6-12-11.2-19.6-8-7.6,3.2-11.2,12-8,19.6l18.9,44.7c1.5,3.6,4.5,6.5,8.1,8ZM509.3,356.5l-18.9-44.7c-1.5-3.7-4.5-6.5-8.1-8-3.7-1.5-7.8-1.5-11.4,0l-44.7,18.9c-7.6,3.2-11.2,12-8,19.6,3.2,7.6,12,11.2,19.6,8l12.5-5.3c-33.1,79.3-110.9,131.7-197.6,131.7s-182.9-66-207.3-160.5c-2.1-8-10.2-12.8-18.2-10.7-8,2.1-12.8,10.2-10.7,18.2,27.9,107.7,125,182.9,236.3,182.9s186.7-59.2,224.7-148.8l4.4,10.4c2.4,5.7,7.9,9.1,13.8,9.1s3.9-.4,5.8-1.2c7.6-3.2,11.2-12,8-19.6ZM225.5,421c1.7.6,3.4.9,5.1.9,4.4,0,8.6-1.9,11.5-5.4l125.2-151.4c3.7-4.5,4.5-10.6,2-15.9-2.5-5.2-7.7-8.6-13.5-8.6h-54.4V105.1c0-6.3-4-11.9-9.9-14.1-5.9-2.1-12.6-.3-16.6,4.5l-125.2,151.4c-3.7,4.5-4.5,10.6-2,15.9,2.5,5.2,7.7,8.6,13.5,8.6h54.4v135.5c0,6.3,3.9,11.9,9.9,14.1ZM181.9,247.5l90.4-108.3v110.6c0,8.8,7.1,15.9,15.9,15.9h45.5l-89.1,107v-109.3c0-8.8-7.1-15.9-15.9-15.9h-46.8Z"/>
</svg>