<?xml version="1.0" encoding="UTF-8"?>
<svg id="Capa_1" xmlns="http://www.w3.org/2000/svg" version="1.1" xmlns:xlink="http://www.w3.org/1999/xlink" viewBox="0 0 512 512">
  <!-- Generator: Adobe Illustrator 29.1.0, SVG Export Plug-In . SVG Version: 2.1.0 Build 142)  -->
  <defs>
    <style>
      .st0 {
        fill: url(#Nueva_muestra_de_degradado_1);
      }
    </style>
    <linearGradient id="Nueva_muestra_de_degradado_1" data-name="Nueva muestra de degradado 1" x1="83.5" y1="68.2" x2="429.5" y2="414.2" gradientUnits="userSpaceOnUse">
      <stop offset="0" stop-color="#3c36ff"/>
      <stop offset="1" stop-color="#fe37a7"/>
    </linearGradient>
  </defs>
  <path class="st0" d="M343.3,219.3c7.2-7.2,7.2-18.9,0-26.1s-18.9-7.2-26.1,0l-85.3,85.3-36.1-36.1c-7.2-7.2-18.9-7.2-26.1,0s-7.2,18.9,0,26.1l49.2,49.2c3.5,3.5,8.1,5.4,13,5.4s9.6-1.9,13-5.4l98.3-98.3h.1ZM308.7,15.1c-32.9-16.4-71.6-16.4-104.4,0l-125.5,62.7c-22.9,11.4-37.4,34.9-37.4,60.5v185.5c0,40.3,20.7,77.7,54.9,99l124.4,77.7c21.9,13.7,49.7,13.7,71.6,0l124.4-77.7c34.1-21.3,54.9-58.7,54.9-99v-185.5c0-25.6-14.5-49-37.4-60.5l-125.5-62.7h0ZM220.8,48.1c22.5-11.2,49-11.2,71.4,0l125.5,62.7c10.4,5.2,17,15.8,17,27.5v185.5c0,27.5-14.2,53.1-37.5,67.7l-124.4,77.7c-10,6.2-22.6,6.2-32.6,0l-124.4-77.7c-23.4-14.6-37.5-40.2-37.5-67.7v-185.5c0-11.6,6.6-22.3,17-27.5l125.5-62.7h0Z"/>
</svg>