<?xml version="1.0" encoding="UTF-8"?>
<svg id="Capa_1" xmlns="http://www.w3.org/2000/svg" version="1.1" xmlns:xlink="http://www.w3.org/1999/xlink" viewBox="0 0 512 512">
  <!-- Generator: Adobe Illustrator 29.1.0, SVG Export Plug-In . SVG Version: 2.1.0 Build 142)  -->
  <defs>
    <style>
      .st0 {
        fill: url(#Degradado_sin_nombre);
      }
    </style>
    <linearGradient id="Degradado_sin_nombre" data-name="Degradado sin nombre" x1="75.5" y1="462.5" x2="471.3" y2="66.7" gradientTransform="translate(0 514) scale(1 -1)" gradientUnits="userSpaceOnUse">
      <stop offset="0" stop-color="#3c36ff"/>
      <stop offset="1" stop-color="#fe37a7"/>
    </linearGradient>
  </defs>
  <path class="st0" d="M491.9,57.3c5.4-7.4,3.9-17.7-3.5-23.2-7.4-5.4-17.7-3.9-23.2,3.5l-73.2,99.1-25-29.4c-5.9-7-16.3-7.8-23.4-1.8-7,5.9-7.8,16.3-1.8,23.4l38.5,45.3c3.3,3.9,8.1,6,13.1,5.8s9.7-2.6,12.7-6.7l85.5-115.8v-.2ZM45,150.9c0-38.8,31.5-70.4,70.4-70.4h154.8c7.8,0,14.1-6.3,14.1-14.1s-6.3-14.1-14.1-14.1H115.4c-54.4,0-98.5,44.1-98.5,98.5v48.8c0,7.8,6.3,14.1,14.1,14.1s14.1-6.3,14.1-14.1v-48.8ZM45,305.2c0-7.8-6.3-14.1-14.1-14.1s-14.1,6.3-14.1,14.1v77.4c0,54.4,44.1,98.5,98.5,98.5h281.2c54.4,0,98.5-44.1,98.5-98.5v-161.8c0-7.8-6.3-14.1-14.1-14.1s-14.1,6.3-14.1,14.1v161.8c0,38.8-31.5,70.4-70.4,70.4H115.4c-38.8,0-70.4-31.5-70.4-70.4v-77.4ZM164.6,137.4c-26.7,0-48.3,21.6-48.3,48.3s21.6,48.3,48.3,48.3,48.3-21.6,48.3-48.3-21.6-48.3-48.3-48.3ZM140.5,185.8c0-13.4,10.8-24.2,24.2-24.2s24.2,10.8,24.2,24.2-10.8,24.2-24.2,24.2-24.2-10.8-24.2-24.2ZM170.1,276.7c25.2,0,46.2,14.9,51.1,39.1s6.4,10.9,12.5,10.9h.3c8.1,0,14.2-8,12.5-16.4-7.1-34.8-36.4-61-71.5-61h-20.8c-35.1,0-64.4,26.1-71.5,61s4.3,16.4,12.5,16.4h.3c6.1,0,11.2-4.6,12.5-10.9,4.9-24.1,25.9-39,51.1-39.1,0,0,0,0,0,0,0,0,10.9,0,10.9,0ZM295.6,262.9h112.3c7.6,0,14.1-5.8,14.4-13.4s-6.1-14.7-14.1-14.7h-112.7c-7.8,0-14.1,6.3-14.1,14.1h0c0,7.8,6.3,14.1,14.1,14.1ZM295.6,328.3h112.3c7.6,0,14.1-5.8,14.4-13.4s-6.1-14.7-14.1-14.7h-112.7c-7.8,0-14.1,6.3-14.1,14.1h0c0,7.8,6.3,14.1,14.1,14.1ZM96.5,393.7h311.4c7.6,0,14.1-5.8,14.4-13.4s-6.1-14.7-14.1-14.7H96.5c-7.8,0-14.1,6.3-14.1,14.1h0c0,7.8,6.3,14.1,14.1,14.1Z"/>
</svg>