<?xml version="1.0" encoding="UTF-8"?>
<svg id="Capa_1" xmlns="http://www.w3.org/2000/svg" version="1.1" xmlns:xlink="http://www.w3.org/1999/xlink" viewBox="0 0 512 512">
  <!-- Generator: Adobe Illustrator 29.1.0, SVG Export Plug-In . SVG Version: 2.1.0 Build 142)  -->
  <defs>
    <style>
      .st0 {
        fill: url(#Nueva_muestra_de_degradado_1);
      }
    </style>
    <linearGradient id="Nueva_muestra_de_degradado_1" data-name="Nueva muestra de degradado 1" x1="95.5" y1="95.5" x2="416.9" y2="416.9" gradientUnits="userSpaceOnUse">
      <stop offset="0" stop-color="#3c36ff"/>
      <stop offset="1" stop-color="#fe37a7"/>
    </linearGradient>
  </defs>
  <path class="st0" d="M457.9,0h-193c-29.8,0-54.1,24.3-54.1,54.1v156.8h-39.1l-86-84.6c-4.3-4.2-10.7-5.5-16.3-3.1s-9.2,7.8-9.2,13.8v73.9h-6.2C24.3,210.9,0,235.1,0,264.9v193C0,487.7,24.3,512,54.1,512h193c29.8,0,54.1-24.3,54.1-54.1v-156.8h39.7l84.5,85.9c2.9,2.9,6.8,4.5,10.7,4.5,1.9,0,3.8-.4,5.7-1.1,5.6-2.3,9.3-7.8,9.3-13.9v-75.4h6.9c29.8,0,54.1-24.3,54.1-54.1V54.1C512,24.3,487.7,0,457.9,0h0ZM482,247.1c0,13.3-10.8,24.1-24.1,24.1h-21.9c-8.3,0-15,6.7-15,15v53.7l-63.2-64.2c-2.8-2.9-6.7-4.5-10.7-4.5h-82.2c-13.3,0-24.1-10.8-24.1-24.1V54.1c0-13.3,10.8-24.1,24.1-24.1h193c13.3,0,24.1,10.8,24.1,24.1v193ZM247.1,482H54.1c-13.3,0-24.1-10.8-24.1-24.1v-193c0-13.3,10.8-24.1,24.1-24.1h21.2c8.3,0,15-6.7,15-15v-53.1l64.9,63.8c2.8,2.8,6.6,4.3,10.5,4.3h45.2v6.2c0,29.8,24.3,54.1,54.1,54.1h6.2v156.8c0,13.3-10.8,24.1-24.1,24.1ZM153.4,271.3c-12.6-.8-24.6,3.5-33.8,12.2-9,8.5-14.2,20.5-14.2,32.9s6.7,15,15,15,15-6.7,15-15,1.7-8.1,4.8-11c3.1-2.9,7.1-4.3,11.3-4.1,7.4.5,13.6,6.7,14.1,14.1.3,5.1-1.9,9.9-5.9,13-15.4,11.8-24.2,29.4-24.2,48.1h0c0,8.4,6.7,15.1,15,15.1s15-6.7,15-15h0c0-9.5,4.6-18.4,12.5-24.5,11.9-9.2,18.5-23.6,17.5-38.6-1.4-22.6-19.5-40.8-42.2-42.2h0ZM150.6,421.9c-7.8,0-15.4,6.9-15,15,.4,8.1,6.6,15,15,15s15.4-6.9,15-15c-.4-8.1-6.6-15-15-15ZM445.4,119.4l-27.1,27.1c-2.7,2.7-6.1,4-9.6,4h0c-3.5,0-7-1.3-9.6-4-5.3-5.3-5.3-13.9,0-19.2l4-4h-116.9c-7.5,0-13.6-6.1-13.6-13.6s6.1-13.6,13.6-13.6h116.9l-4-4c-5.3-5.3-5.3-13.9,0-19.2,5.3-5.3,13.9-5.3,19.2,0l27.1,27.1c.3.3.7.7,1,1,0,0,.1.2.2.3.2.3.4.5.6.8.1.2.2.3.3.5.1.2.3.4.4.7,0,.2.2.4.3.5.1.2.2.4.3.7,0,.2.1.4.2.6,0,.2.2.5.2.7,0,.2,0,.4.1.6,0,.2.1.5.2.7,0,.2,0,.5.1.7,0,.2,0,.4,0,.6,0,.4,0,.9,0,1.3,0,0,0,0,0,0s0,0,0,0c0,.4,0,.9,0,1.3,0,.2,0,.4,0,.6,0,.2,0,.5-.1.7,0,.2-.1.5-.2.7,0,.2,0,.4-.2.6,0,.2-.2.5-.2.7,0,.2-.1.4-.2.6,0,.2-.2.4-.3.6,0,.2-.2.4-.3.6-.1.2-.3.4-.4.6-.1.2-.2.3-.3.5-.2.3-.4.5-.6.8,0,.1-.1.2-.2.3-.3.4-.6.7-.9,1ZM449.4,191.3c0,7.5-6.1,13.6-13.6,13.6h-116.9l4,4c5.3,5.3,5.3,13.9,0,19.2-2.7,2.7-6.1,4-9.6,4h0c-3.5,0-7-1.3-9.6-4l-27.1-27.1c-.3-.3-.6-.7-.9-1,0,0-.1-.2-.2-.3-.2-.2-.4-.5-.6-.8-.1-.2-.2-.3-.3-.5-.1-.2-.3-.4-.4-.6,0-.2-.2-.4-.3-.6-.1-.2-.2-.4-.3-.6,0-.2-.1-.4-.2-.6,0-.2-.2-.4-.2-.7,0-.2-.1-.4-.2-.6,0-.2-.1-.5-.2-.7,0-.2,0-.5-.1-.7,0-.2,0-.4,0-.6,0-.4,0-.9,0-1.3h0s0,0,0,0c0-.4,0-.9,0-1.3,0-.2,0-.4,0-.6,0-.2,0-.5.1-.7,0-.2.1-.5.2-.7,0-.2,0-.4.2-.6,0-.2.2-.5.2-.7,0-.2.1-.4.2-.6,0-.2.2-.4.3-.6,0-.2.2-.4.3-.6.1-.2.3-.4.4-.6,0-.2.2-.3.3-.5.2-.3.4-.5.6-.8,0,0,.1-.2.2-.3.3-.4.6-.7.9-1l27.1-27.1c5.3-5.3,13.9-5.3,19.2,0,5.3,5.3,5.3,13.9,0,19.2l-4,4h116.9c7.5,0,13.6,6.1,13.6,13.6Z"/>
</svg>