<?xml version="1.0" encoding="UTF-8"?>
<svg id="Capa_1" xmlns="http://www.w3.org/2000/svg" version="1.1" xmlns:xlink="http://www.w3.org/1999/xlink" viewBox="0 0 512 512">
  <!-- Generator: Adobe Illustrator 29.1.0, SVG Export Plug-In . SVG Version: 2.1.0 Build 142)  -->
  <defs>
    <style>
      .st0 {
        fill: url(#Nueva_muestra_de_degradado_1);
        fill-rule: evenodd;
      }
    </style>
    <linearGradient id="Nueva_muestra_de_degradado_1" data-name="Nueva muestra de degradado 1" x1="93.7" y1="59.5" x2="453.5" y2="419.3" gradientUnits="userSpaceOnUse">
      <stop offset="0" stop-color="#3c36ff"/>
      <stop offset="1" stop-color="#fe37a7"/>
    </linearGradient>
  </defs>
  <path class="st0" d="M439.4,17.4c-.7-7.9-6.9-14.5-15.3-15.3s-10.2,1.5-13.8,5.2l-28.2,28.2C345.3,14.4,302.7,2.3,257.4,2,117.1,1.3,2.1,115.5,2,255.8c-.1,159.3,146.5,284.5,312.2,247.7,94.4-20.9,168.4-95.1,189.3-189.4,10.1-45.5,7.9-89.6-3.8-129.7-3.6-12.3-19.1-16.3-28.2-7.2h0c-4.4,4.4-6,10.8-4.3,16.7,5.7,19.4,8.8,39.9,8.8,61.2.4,118.6-97.8,219-216.5,220.9-124.5,2-225.8-99.3-223.8-223.8,2-119.7,103.2-217.9,222.9-216.4,35.4.4,68.8,9.2,98.3,24.5l-5.3,5.3c-3.6,3.6-5.3,8.5-4.9,13.5l5.2,56.8-13,13c-23.1-18-52.2-28.6-83.7-28.4-73.9.4-134.3,60.6-134.8,134.5-.5,75.3,60.4,136.4,135.5,136.4s133.5-58.9,135.3-132c.3-10.2-.8-21.4-2.8-32.3s-19.2-18.5-28.8-8.7h0c-4.1,4.1-5.8,10-4.5,15.7s2.3,13.7,2.3,20.9c.5,55.8-44.8,102-100.6,102.5-56.8.5-103-45.6-102.6-102.5.5-54.6,46.7-100.6,101.3-100.7,22.1,0,42.5,6.9,59.2,18.8l-37,37c-6.3-3-13.3-4.8-20.7-4.9-27.9-.6-51.3,21.7-51.9,49.6-.6,27.9,3.8,23.7,10.9,32.6,6.3,8,18.3,8.6,25.5,1.4h0c6-6,6.2-15.4.8-21.9s-3.4-5.8-3.4-10.6c0-7,4-13,10-15.7-2.8,6.2-1.7,13.8,3.5,18.9,6.6,6.6,17.3,6.6,23.9,0l99.5-99.5,56.8,5.2c5,.5,10-1.3,13.5-4.9l58.8-58.8c4.6-4.6,6.2-11.6,3.9-17.7-2.2-6.2-7.8-10.5-14.4-11.1l-50.6-4.6-4.6-50.6h.2ZM428.7,133.9l-46.4-4.2-4.2-46.4,30-30,2.8,31.1c.8,8.8,7.8,15.9,16.7,16.7l31.1,2.8-30,30Z"/>
</svg>