<?xml version="1.0" encoding="UTF-8"?>
<svg id="Layer_1" xmlns="http://www.w3.org/2000/svg" version="1.1" xmlns:xlink="http://www.w3.org/1999/xlink" viewBox="0 0 512 512">
  <!-- Generator: Adobe Illustrator 29.1.0, SVG Export Plug-In . SVG Version: 2.1.0 Build 142)  -->
  <defs>
    <style>
      .st0 {
        fill: url(#Nueva_muestra_de_degradado_1);
      }
    </style>
    <linearGradient id="Nueva_muestra_de_degradado_1" data-name="Nueva muestra de degradado 1" x1="12.4" y1="69.4" x2="396.6" y2="453.6" gradientUnits="userSpaceOnUse">
      <stop offset="0" stop-color="#3c36ff"/>
      <stop offset="1" stop-color="#fe37a7"/>
    </linearGradient>
  </defs>
  <path class="st0" d="M152.3,206.8v-7.3c26.3-6.1,36.2-23.9,34.5-41.9s-19.5-35.7-40-35.7h-18.6c-4.7,0-8.9-3.3-9.6-8s3.6-10.8,9.3-10.8h33.8c8.3,0,15-6.7,15-15h0c0-8.3-6.7-15-15-15h-10.5v-7.6c0-8.3-6.7-15-15-15h0c-8.3,0-15,6.7-15,15v8.2c-19.6,3.4-34.3,21.3-32.6,42.2s19.3,36,39.9,36h18.6c4.7,0,9,3.4,9.7,8s-3.7,10.9-9.4,10.9h-43.9c-8.3,0-15,6.7-15,15h0c0,8.3,6.7,15,15,15h18.7v6.1c0,8.3,6.7,15,15,15h0c8.3,0,15-6.7,15-15ZM446.9,256.8c-22.9-77.9-92.3-136.1-176-142.3C260.1,49.4,202.8-.2,134.3,1.1,62.2,2.4,3.3,60.6,1,132.6c-1.6,51,25,96,65.4,120.5-.4,1.2-.7,2.4-1,3.6C22,271.1,0,290,0,313s21.9,41.8,65.1,56.1c24.3,82.5,100.7,142.9,190.9,142.9s199-89.3,199-199-.4-14.4-1.2-21.5c22.5,9.7,28.2,18.4,28.2,21.5s-.7,2.8-2.3,4.9c-4.1,5.1-4.5,12.2-.8,17.5l.3.5c5.6,8.1,17.5,8.6,23.7,1,6-7.4,9.1-15.4,9.1-23.8,0-22.9-21.9-41.8-65.1-56.1h0ZM425,313c0,2.7,0,5.3-.2,8l-33.8-3.1-53.7-52.7-77.2,9.6-13.6-10.3v-40.8l37.4-9.8,53.5-49.1c52.2,28.8,87.6,84.4,87.6,148.1h0ZM262.6,188.6c5.6-13.6,9.1-28.4,10-43.8,12,1.2,23.5,3.6,34.6,7.1l-38.1,35-6.5,1.7ZM31,137c0-59.8,49.8-108.2,110.1-105.8s99.5,46.7,101.6,101.6c2.3,60.3-46,110.1-105.8,110.1S31,195.4,31,137h0ZM123.4,272.2l3,26.8-8.9,52.7c-9.6-1.9-18.8-4.1-27.4-6.4-2-10.5-3.1-21.3-3.1-32.4s2.6-30.9,7-47c9.4,3.1,19.2,5.3,29.4,6.3ZM30,313c0-3,5.6-11.8,28.4-21.6-.9,7.5-1.4,14.8-1.4,21.6s.4,14.4,1.2,21.4c-22.3-9.7-28.2-18.4-28.2-21.4ZM100.3,378.7c11.8,2.7,24.4,5,37.6,7l21.1,34.9-5.9,26.4c-23-17.7-41.3-41.2-52.8-68.2h0ZM239.9,481.2l21.7-19.1,44,12.4c-15.7,4.8-32.4,7.4-49.6,7.4s-10.8-.3-16.1-.8h0ZM347.3,455.1l-93.3-26.3-50.8,44.7c-8-2.6-15.7-5.9-23.2-9.6l10.9-48.5-15.2-25.1c25.5,2.4,52.5,3.7,80.2,3.7h2.6c12.1,0,30.5,0,48-.2l-9.1,8.9c-6,5.7-6.2,15.2-.4,21.2h0c5.7,6,15.2,6.2,21.2.4l37.4-36.2c6-5.8,6-15.3,0-21.1l-36.9-35.7c-6-5.7-15.5-5.6-21.2.4h0c-5.7,6-5.6,15.5.4,21.2l10.9,10.7c-19.1.3-39.9.3-51.7.2h-1.2c-35.1,0-69-2.1-99.8-6l-7.3-12,7.8-46.1-3.1-28c23.3-2.9,44.8-11.7,63-24.8v32.5l35.3,26.6,74.8-9.4,51,50,43.1,3.9c-10,43.6-36.9,80.9-73.5,104.4h0Z"/>
</svg>