<?xml version="1.0" encoding="UTF-8"?>
<svg id="Layer_1" xmlns="http://www.w3.org/2000/svg" version="1.1" xmlns:xlink="http://www.w3.org/1999/xlink" viewBox="0 0 512 512">
  <!-- Generator: Adobe Illustrator 29.1.0, SVG Export Plug-In . SVG Version: 2.1.0 Build 142)  -->
  <defs>
    <style>
      .st0 {
        fill: url(#Nueva_muestra_de_degradado_1);
      }
    </style>
    <linearGradient id="Nueva_muestra_de_degradado_1" data-name="Nueva muestra de degradado 1" x1="24.7" y1="56.4" x2="457.6" y2="489.3" gradientUnits="userSpaceOnUse">
      <stop offset="0" stop-color="#3c36ff"/>
      <stop offset="1" stop-color="#fe37a7"/>
    </linearGradient>
  </defs>
  <path class="st0" d="M315,360.2c5.8,5.8,15.2,5.8,21.1,0l98.9-98.9,25.8,25.8c7.1,7.1,17.8,9.4,27.2,5.7,9.4-3.6,15.7-12.5,16.1-22.6l6.9-161.2c.9-14.5-12.1-27.3-26.5-26.4l-161.2,6.9c-10.1.4-18.9,6.8-22.6,16.1-3.7,9.4-1.4,20,5.7,27.2l25.8,25.8L17.5,473.5c-13.6,14.1,7,34.7,21.1,21.1L363.9,169.2c5.8-5.8,5.8-15.2,0-21.1l-29.3-29.3,146.3-6.3-6.3,146.3-29.3-29.3c-5.8-5.8-15.2-5.8-21.1,0l-98.9,98.9-25.8-25.8c-7.1-7.1-17.8-9.4-27.2-5.7-9.4,3.6-15.7,12.5-16.1,22.6l-6.9,161.2c-.9,14.4,12,27.4,26.5,26.4l161.2-6.9c10.1-.4,18.9-6.8,22.6-16.1,3.7-9.4,1.4-20-5.7-27.2l-25.8-25.8,65.5-65.5c13.6-14.1-7-34.7-21.1-21.1l-76,76.1c-5.8,5.8-5.8,15.2,0,21.1l29.3,29.3-146.3,6.3,6.3-146.3,29.3,29.3ZM145.6,194.7v-2.3h8.8c45.5-1.2,45.4-68.8,0-70h-46.2c-5.5,0-5.5-9.7,0-9.6h54.4c19.6-.3,19.6-29.5,0-29.8h-17v-6.1c-.3-19.6-29.5-19.6-29.8,0v6.1h-7.6c-44.9,1.2-44.8,68,0,69.1h46.2c6.1,0,6.1,10.4,0,10.5h-56.2c-19.6.3-19.6,29.5,0,29.8h17.6v2.3c.3,19.6,29.5,19.6,29.8,0ZM262.6,135.9c0-72.3-58.8-131.1-131.1-131.1-174,7.2-173.9,255.1,0,262.3,72.3,0,131.1-58.8,131.1-131.1ZM30.1,135.9c0-55.9,45.5-101.4,101.4-101.4,134.4,5.6,134.4,197.2,0,202.7-55.9,0-101.4-45.5-101.4-101.3Z"/>
</svg>