<?xml version="1.0" encoding="UTF-8"?>
<svg id="Capa_1" xmlns="http://www.w3.org/2000/svg" version="1.1" xmlns:xlink="http://www.w3.org/1999/xlink" viewBox="0 0 512 512">
  <!-- Generator: Adobe Illustrator 29.1.0, SVG Export Plug-In . SVG Version: 2.1.0 Build 142)  -->
  <defs>
    <style>
      .st0 {
        fill: url(#Nueva_muestra_de_degradado_1);
      }
    </style>
    <linearGradient id="Nueva_muestra_de_degradado_1" data-name="Nueva muestra de degradado 1" x1="23.3" y1="54.5" x2="489" y2="520.3" gradientUnits="userSpaceOnUse">
      <stop offset="0" stop-color="#3c36ff"/>
      <stop offset="1" stop-color="#fe37a7"/>
    </linearGradient>
  </defs>
  <path class="st0" d="M268.7,5.6c-8.3-2.1-17-2.1-25.4,0L23.4,60c-12.3,3-20.9,14.1-20.9,26.7v32.6c0,10.8,6.3,20.7,16.2,25.1,9.9,4.4,3.2,1.6,4.3,2.6,5.5,5,9,12.3,9,20.4v28.7c0,9.2,7.5,16.7,16.7,16.7h0c7.1,0,12.8,5.7,12.8,12.8v177c0,8-6.5,14.5-14.5,14.5h-.4c-8,0-14.5,6.5-14.5,14.5v32.1c0,6.8-5.5,12.3-12.3,12.3h-.8c-9.1,0-16.3,7.3-16.3,16.2v.5c0,9.2,7.5,16.7,16.7,16.7h473.6c9.2,0,16.7-7.5,16.7-16.7v-.4c0-9-7.3-16.3-16.3-16.3h-.4c-7.1,0-12.9-5.7-12.9-12.8v-31.7c0-9.7-6.5-14.5-14.5-14.5h-.4c-8.1,0-14.6-6.5-14.6-14.5v-177c0-7.1,5.7-12.8,12.8-12.8h0c9.2,0,16.7-7.5,16.7-16.7v-28.7c0-8.1,3.5-15.3,9-20.3s2.6-1.8,4.3-2.6c9.9-4.4,16.2-14.3,16.2-25.1v-32.6c0-12.7-8.6-23.7-20.9-26.7L268.7,5.6ZM433.8,476.1H78.2c-7.1,0-12.8-5.7-12.8-12.8h0c0-7.1,5.7-12.8,12.8-12.8h355.7c7.1,0,12.8,5.7,12.8,12.8h0c0,7.1-5.7,12.8-12.8,12.8h-.1ZM107.8,417.2h-.5c-6.8,0-12.4-5.6-12.4-12.4v-179.2h0c0-7.1,5.7-12.8,12.6-12.8h.5c6.9,0,12.4,5.6,12.4,12.4v179.2h0c0,7.1-5.6,12.8-12.6,12.8ZM256,331.7c7.2,0,13,6,12.8,13.3s-5.7,12-12.3,12.3-13.3-5.6-13.3-12.8v-2h-33.4v2c0,19,11.8,36.2,29.5,43v29.7h-72.7c-7.1,0-12.8-5.7-12.8-12.8v-178.8c0-7.1,5.7-12.8,12.8-12.8h72.7v29.7c-17.7,6.9-29.5,24-29.5,43s20.7,46.2,46.2,46.2h0ZM270.7,287.5h31.4v-2c0-19-11.8-36.2-29.5-43v-29.7h72.7c7.1,0,12.8,5.7,12.8,12.8v178.8c0,7.1-5.7,12.8-12.8,12.8h-72.7v-29.7c17.7-6.9,29.5-24,29.5-43s-20.6-46-46-46.2c-6.3,0-11.9-4.5-12.8-10.8s5.8-15.7,14.3-14.7,11.1,6.5,11.1,13v1.6h2ZM404.8,417.2h-.8c-6.8,0-12.4-5.6-12.4-12.4v-179.2h0c0-7.1,5.7-12.8,12.6-12.8h.3c7,0,12.6,5.7,12.6,12.7h0v179.3c0,6.8-5.5,12.4-12.4,12.4h0ZM435.5,179.4H76.5c-6,0-11.2-4.2-12.4-10.1s0-.2,0-.3c-1.6-7.9,4.4-15.2,12.4-15.2h359c8,0,14,7.4,12.4,15.2s0,.2,0,.3c-1.2,5.9-6.4,10.1-12.4,10.1ZM459.7,120.5H52.3c-9,0-16.4-7.3-16.4-16.4h0c0-7.5,5.1-14.1,12.4-15.9l195.1-48.3c8.2-2,16.8-2,25,0l195.1,48.3c7.3,1.8,12.4,8.4,12.4,15.9h0c0,9-7.3,16.4-16.4,16.4h.2,0ZM272.7,73.6v9.4c0,6.6-5.4,12-12,12h-9.4c-6.6,0-12-5.4-12-12v-9.4c0-6.6,5.4-12,12-12h9.4c6.6,0,12,5.4,12,12Z"/>
</svg>