<?xml version="1.0" encoding="UTF-8"?>
<svg id="Capa_1" xmlns="http://www.w3.org/2000/svg" version="1.1" viewBox="0 0 512 512">
  <!-- Generator: Adobe Illustrator 29.1.0, SVG Export Plug-In . SVG Version: 2.1.0 Build 142)  -->
  <defs>
    <style>
      .st0 {
        fill: #7b3aec;
      }
    </style>
  </defs>
  <path class="st0" d="M512,257.6c0-10.2-4.5-18.1-12-22.2l-122.8-122.8c-5.1-5.1-10.2-7.6-17.8-7.6h0c-7.6,0-12.7,2.5-17.8,7.6-10.2,10.2-10.2,25.4,0,35.6l84,84H28.6c-15.3,0-25.4,10.2-25.4,25.4s10.2,25.4,25.4,25.4h397l-84,84c-10.2,10.2-10.2,25.4,0,35.6s25.4,10.2,35.6,0l122.8-122.8c7.5-4.1,12-12.1,12-22.2h0Z"/>
</svg>