<?xml version="1.0" encoding="UTF-8"?>
<svg id="Capa_1" xmlns="http://www.w3.org/2000/svg" version="1.1" xmlns:xlink="http://www.w3.org/1999/xlink" viewBox="0 0 512 512">
  <!-- Generator: Adobe Illustrator 29.1.0, SVG Export Plug-In . SVG Version: 2.1.0 Build 142)  -->
  <defs>
    <style>
      .st0 {
        fill: url(#Nueva_muestra_de_degradado_11);
      }

      .st1 {
        fill: url(#Nueva_muestra_de_degradado_1);
      }
    </style>
    <linearGradient id="Nueva_muestra_de_degradado_1" data-name="Nueva muestra de degradado 1" x1="80.5" y1="80.6" x2="431.4" y2="431.4" gradientUnits="userSpaceOnUse">
      <stop offset="0" stop-color="#3c36ff"/>
      <stop offset="1" stop-color="#fe37a7"/>
    </linearGradient>
    <linearGradient id="Nueva_muestra_de_degradado_11" data-name="Nueva muestra de degradado 1" x1="172.8" y1="172.8" x2="339.2" y2="339.2" xlink:href="#Nueva_muestra_de_degradado_1"/>
  </defs>
  <path class="st1" d="M464.9,317.1c11.6-39.7,11.6-82.3,0-122.2,19.3-16,24.9-44,12-66.4-12.9-22.4-40-31.6-63.5-22.9-28.6-29.9-65.5-51.2-105.8-61.1-4.2-24.7-25.7-43.6-51.6-43.6s-47.4,18.8-51.5,43.5c-40.2,9.8-77.1,31.1-105.8,61.1-10.1-3.8-21.1-4.3-31.8-1.5-13.5,3.6-24.8,12.3-31.8,24.4-12.9,22.4-7.4,50.4,11.9,66.4-11.6,39.7-11.6,82.3,0,122.2-19.3,16-24.9,44-12,66.4,7,12.1,18.3,20.8,31.8,24.4,4.5,1.2,9.1,1.8,13.6,1.8s12.3-1.1,18.1-3.3c28.6,29.9,65.5,51.2,105.8,61.1,4.2,24.7,25.7,43.6,51.6,43.6s47.4-18.8,51.5-43.5c40.2-9.8,77.1-31.1,105.8-61.1,5.9,2.2,12,3.3,18.1,3.3,18.1,0,35.7-9.4,45.4-26.1,12.9-22.4,7.4-50.4-11.9-66.4h0ZM451,143.4c6.2,10.7,2.5,24.4-8.2,30.6-10.7,6.2-24.4,2.5-30.6-8.2-6.2-10.7-2.5-24.4,8.2-30.6,3.5-2,7.4-3,11.2-3,7.8,0,15.3,4,19.4,11.2h0ZM256,30.9c12.4,0,22.4,10.1,22.4,22.4s-10.1,22.4-22.4,22.4-22.4-10.1-22.4-22.4,10.1-22.4,22.4-22.4h0ZM61,143.4c3-5.2,7.8-8.9,13.6-10.4,1.9-.5,3.9-.8,5.8-.8,3.9,0,7.7,1,11.2,3,10.7,6.2,14.4,19.9,8.2,30.6-6.2,10.7-19.9,14.4-30.6,8.2-10.7-6.2-14.4-19.9-8.2-30.6ZM74.7,379c-5.8-1.5-10.6-5.3-13.6-10.4-6.2-10.7-2.5-24.4,8.2-30.6,10.7-6.2,24.4-2.5,30.6,8.2,6.2,10.7,2.5,24.4-8.2,30.6-5.2,3-11.2,3.8-17,2.2ZM256,481.1c-12.4,0-22.4-10.1-22.4-22.4s10.1-22.4,22.4-22.4,22.4,10.1,22.4,22.4-10.1,22.4-22.4,22.4ZM303.8,437.6c-8.1-18.4-26.5-31.2-47.8-31.2s-39.7,12.8-47.8,31.1c-32.4-8.6-62-25.6-85.5-49.3,3.8-5.2,6.6-11,8.3-17.4,3.6-13.5,1.8-27.6-5.2-39.7-10.7-18.5-30.9-27.9-50.9-25.8-8.8-32.3-8.8-66.6,0-98.7,1.9.2,3.7.3,5.6.3,18.1,0,35.7-9.4,45.4-26.1,7-12.1,8.8-26.2,5.2-39.7-1.7-6.3-4.5-12.2-8.3-17.3,23.6-23.8,53.2-40.9,85.5-49.4,8.1,18.4,26.5,31.2,47.8,31.2s39.7-12.8,47.8-31.1c32.4,8.6,62.1,25.7,85.5,49.3-11.8,16.2-13.8,38.5-3.1,57,9.7,16.8,27.3,26.1,45.4,26.1s3.7-.1,5.5-.3c8.8,32.3,8.8,66.6,0,98.7-20-2.1-40.3,7.4-50.9,25.8-10.7,18.5-8.7,40.8,3.1,57-23.6,23.8-53.3,40.9-85.5,49.4h0ZM451,368.6c-6.2,10.7-19.9,14.4-30.6,8.2-10.7-6.2-14.4-19.9-8.2-30.6,4.1-7.2,11.7-11.2,19.4-11.2s7.6,1,11.2,3c10.7,6.2,14.4,19.9,8.2,30.6h0Z"/>
  <path class="st0" d="M150.5,195.1v121.8l105.5,60.9,105.5-60.9v-121.8l-105.5-60.9-105.5,60.9ZM316.7,203.7l-60.7,35-60.7-35,60.7-35,60.7,35ZM180.4,229.6l60.7,35v70.1l-60.7-35v-70.1ZM270.9,334.7v-70.1l60.7-35v70.1l-60.7,35Z"/>
</svg>