<?xml version="1.0" encoding="UTF-8"?>
<svg id="Capa_1" xmlns="http://www.w3.org/2000/svg" version="1.1" xmlns:xlink="http://www.w3.org/1999/xlink" viewBox="0 0 512 512">
  <!-- Generator: Adobe Illustrator 29.1.0, SVG Export Plug-In . SVG Version: 2.1.0 Build 142)  -->
  <defs>
    <style>
      .st0 {
        fill: url(#Nueva_muestra_de_degradado_1);
      }
    </style>
    <linearGradient id="Nueva_muestra_de_degradado_1" data-name="Nueva muestra de degradado 1" x1="14" y1="38.8" x2="419.2" y2="444" gradientUnits="userSpaceOnUse">
      <stop offset="0" stop-color="#3c36ff"/>
      <stop offset="1" stop-color="#fe37a7"/>
    </linearGradient>
  </defs>
  <path class="st0" d="M410.4,262v-29.9h5c44.5-.2,61.5-58.4,24.2-82.4-9.4-49.2-78.9-49.2-88.3,0-37.3,24-20.3,82.2,24.2,82.4h5v29.9h-89.6v-99.6h-79.7v-29.9h-59.8v-31.9h5c35.7,0,64.7-29,64.7-64.7V1h-34.9c-20,0-37.9,9.1-49.8,23.4C124.6,10.1,106.7,1,86.7,1h-34.9v34.9c0,35.7,29,64.7,64.7,64.7h5v31.9h-59.8v129.5H21.9v14.9c-2.6,125.8,108.2,236.7,234.1,234.1,125.8,2.6,236.7-108.3,234.1-234.1v-14.9h-79.7ZM151.4,65.7c0-19.2,15.6-34.9,34.9-34.9h5v5c0,19.2-15.6,34.9-34.9,34.9h-5v-5ZM375.5,202.2c-16.7-.2-20.7-23.2-4.9-28.9l10.7-3.7-.7-11.3c0-.6,0-1.1-.1-1.5,1.3-19,28.5-19,29.9,0,0,.4-.1.9-.1,1.5l-.7,11.3,10.7,3.7c15.8,5.7,11.8,28.7-4.9,28.9h-39.8ZM211.2,192.2h49.8v69.7h-49.8v-69.7ZM116.6,70.7c-19.2,0-34.9-15.6-34.9-34.9v-5h5c19.2,0,34.9,15.6,34.9,34.9v5h-5ZM91.7,162.4h89.6v99.6h-29.9v-44.8h-29.9v44.8h-29.9v-99.6ZM255.2,481.1c-66.1-.2-124.9-32-162-81.1,63.8-68.1,178.1-10.9,162,81.1ZM285.7,478.9c13.4-114.7-125.9-184.1-209.2-104.6-13.5-24.8-22.1-52.8-24.2-82.5h281.4c-1.8,3.7-4.5,7.1-7.9,9.6-42.3,31.9-19.8,99.8,33.3,99.9h58.5c-31.6,41-78.5,69.7-132,77.5h0ZM436.9,371.5h-77.7c-24.5,0-34.9-31.4-15.4-46.1,11.1-8.3,18.6-20.3,21.3-33.5h94.6c-2.1,28.6-10.1,55.5-22.7,79.7Z"/>
</svg>