<?xml version="1.0" encoding="UTF-8"?>
<svg id="Capa_1" xmlns="http://www.w3.org/2000/svg" version="1.1" xmlns:xlink="http://www.w3.org/1999/xlink" viewBox="0 0 512 512">
  <!-- Generator: Adobe Illustrator 29.1.0, SVG Export Plug-In . SVG Version: 2.1.0 Build 142)  -->
  <defs>
    <style>
      .st0 {
        fill: url(#Nueva_muestra_de_degradado_1);
      }
    </style>
    <linearGradient id="Nueva_muestra_de_degradado_1" data-name="Nueva muestra de degradado 1" x1="17.3" y1="79.9" x2="444.3" y2="506.9" gradientUnits="userSpaceOnUse">
      <stop offset="0" stop-color="#3c36ff"/>
      <stop offset="1" stop-color="#fe37a7"/>
    </linearGradient>
  </defs>
  <path class="st0" d="M248.7,291c0,.1-.1.2-.2.3-.3.4-.6.7-.9,1l-26.8,26.8c-2.6,2.6-6.1,3.9-9.5,3.9h0c-3.4,0-6.9-1.3-9.5-3.9-5.2-5.2-5.2-13.7,0-19l3.9-3.9H68.1c-7.4,0-13.4-6-13.4-13.4s6-13.4,13.4-13.4h137.6l-3.9-3.9c-5.2-5.2-5.2-13.7,0-19,5.2-5.2,13.7-5.2,19,0l26.8,26.8c.3.3.6.7.9,1,0,0,.1.2.2.3.2.3.4.5.6.8.1.2.2.3.3.5.1.2.3.4.4.6,0,.2.2.4.3.5.1.2.2.4.3.6,0,.2.1.4.2.6,0,.2.2.5.2.7,0,.2,0,.4.1.6,0,.2.1.5.2.7,0,.2,0,.5.1.7,0,.2,0,.4,0,.6,0,.4,0,.9,0,1.3,0,0,0,0,0,0s0,0,0,0c0,.4,0,.9,0,1.3,0,.2,0,.4,0,.6,0,.2,0,.5-.1.7,0,.2-.1.5-.2.7,0,.2,0,.4-.1.6,0,.2-.2.5-.2.7,0,.2-.1.4-.2.6,0,.2-.2.4-.3.6,0,.2-.2.4-.3.5-.1.2-.2.4-.4.6,0,.2-.2.3-.3.5-.2.3-.4.5-.5.7ZM200,126.1c3.2.6,12.4,3.6,12.4,7.9v1c0,4.2-4.6,7.7-10.1,7.7s-5.8-1.5-6.6-3.6c-2.8-6.9-10.6-10.2-17.5-7.4-6.9,2.8-10.2,10.6-7.4,17.5,3.3,8.1,9.9,14.4,18.1,17.7v8.6c0,7.4,6,13.4,13.4,13.4s13.4-6,13.4-13.4v-8.3c13.7-5,23.5-17.6,23.5-32.2v-1c0-22.6-21.8-32.2-34.6-34.4-3.2-.6-12.4-3.6-12.4-7.9v-1c0-4.2,4.6-7.7,10.1-7.7,0,0,0,0,0,0h0c3,0,5.8,1.5,6.6,3.6,2.8,6.9,10.6,10.2,17.5,7.4,6.9-2.8,10.2-10.6,7.4-17.5-3.3-8.1-9.9-14.4-18.1-17.7v-8.6c0-7.4-6-13.4-13.4-13.4s-13.4,6-13.4,13.4v8.3c-13.7,5-23.5,17.6-23.5,32.2v1c0,22.6,21.8,32.2,34.6,34.4ZM251.5,363.4c0-7.4-6-13.4-13.4-13.4H100.5l3.9-3.9c5.2-5.2,5.2-13.7,0-19-5.2-5.2-13.7-5.2-19,0l-26.8,26.8c-.3.3-.6.7-.9,1,0,0-.1.2-.2.3-.2.2-.4.5-.6.8-.1.2-.2.3-.3.5-.1.2-.3.4-.4.6,0,.2-.2.4-.3.5-.1.2-.2.4-.3.6,0,.2-.1.4-.2.6,0,.2-.2.4-.2.7,0,.2-.1.4-.2.6,0,.2-.1.5-.2.7,0,.2,0,.5-.1.7,0,.2,0,.4,0,.6,0,.9,0,1.8,0,2.6,0,.2,0,.4,0,.6,0,.2,0,.5.1.7,0,.2.1.5.2.7,0,.2,0,.4.2.6,0,.2.2.4.2.7,0,.2.1.4.2.6,0,.2.2.4.3.6,0,.2.2.4.3.6.1.2.2.4.4.6.1.2.2.3.3.5.2.3.4.5.5.7,0,.1.1.2.2.3.3.4.6.7.9,1l26.8,26.8c2.6,2.6,6.1,3.9,9.5,3.9h0c3.4,0,6.9-1.3,9.5-3.9,5.2-5.2,5.2-13.7,0-19l-3.9-3.9h137.6c7.4,0,13.4-6,13.4-13.4ZM511,390.2c0,66.6-54.2,120.8-120.8,120.8s-78.7-21.3-100.4-53.7H41.3c-22.2,0-40.3-18.1-40.3-40.3V112.8c0-22.2,18.1-40.3,40.3-40.3h56.7C114.2,30.7,154.8,1,202.3,1s88.1,29.7,104.3,71.6h56.7c22.2,0,40.3,18.1,40.3,40.3v116.3c0,7.4-6,13.4-13.4,13.4s-13.4-6-13.4-13.4v-116.3c0-7.4-6-13.4-13.4-13.4h-50c.5,4.4.8,8.9.8,13.4,0,61.7-50.2,111.8-111.8,111.8s-111.8-50.2-111.8-111.8.3-9,.8-13.4h-50c-7.4,0-13.4,6-13.4,13.4v304.2c0,7.4,6,13.4,13.4,13.4h235.1c-4.5-12.6-6.9-26.2-6.9-40.3,0-66.6,54.2-120.8,120.8-120.8s120.8,54.2,120.8,120.8ZM120.5,89.7c0,.1,0,.3-.1.4-2,7.2-3.1,14.9-3.1,22.7,0,46.9,38.1,85,85,85s85-38.1,85-85-1.1-15.5-3.1-22.7c0-.1,0-.3-.1-.4-10.1-35.6-42.9-61.8-81.8-61.8s-71.7,26.2-81.8,61.8ZM484.2,390.2c0-51.8-42.1-93.9-93.9-93.9s-93.9,42.1-93.9,93.9,42.1,93.9,93.9,93.9,93.9-42.1,93.9-93.9ZM455.6,344.9c-5.2-5.2-13.7-5.2-19,0l-62.1,62.1-30.8-30.8c-5.2-5.2-13.7-5.2-19,0-5.2,5.2-5.2,13.7,0,19l40.3,40.3c2.5,2.5,5.9,3.9,9.5,3.9s7-1.4,9.5-3.9l71.6-71.6c5.2-5.2,5.2-13.7,0-19ZM374.6,439.4h0,0Z"/>
</svg>