<?xml version="1.0" encoding="UTF-8"?>
<svg id="Layer_1" xmlns="http://www.w3.org/2000/svg" version="1.1" xmlns:xlink="http://www.w3.org/1999/xlink" viewBox="0 0 512 512">
  <!-- Generator: Adobe Illustrator 29.1.0, SVG Export Plug-In . SVG Version: 2.1.0 Build 142)  -->
  <defs>
    <style>
      .st0 {
        fill: url(#Nueva_muestra_de_degradado_1);
      }
    </style>
    <linearGradient id="Nueva_muestra_de_degradado_1" data-name="Nueva muestra de degradado 1" x1="94.8" y1="68.6" x2="391.2" y2="365" gradientUnits="userSpaceOnUse">
      <stop offset="0" stop-color="#3c36ff"/>
      <stop offset="1" stop-color="#fe37a7"/>
    </linearGradient>
  </defs>
  <path class="st0" d="M191.4,325.6h-19.8v-19.8h35.4c9.7,0,17.5-7.8,17.5-17.5s-7.8-17.5-17.5-17.5h-4.9c-1.8-9.3-10.8-15.3-20-13.5-6.9,1.4-12.3,6.8-13.5,13.8-18,1.6-31.9,16.6-32,34.7v19.8c0,19.3,15.7,35,35,35h19.8v19.8h-35.5c-9.7,0-17.5,7.8-17.5,17.5s7.8,17.5,17.5,17.5h12.7c1.9,9.3,10.9,15.3,20.2,13.5,7.5-1.5,13.1-7.8,13.7-15.5,14.2-4.8,23.7-18,23.8-33v-19.8c0-19.3-15.7-35-35-35h0ZM343.7,88h-17.5v-25.5c0-9.7-7.8-17.5-17.5-17.5s-17.5,7.8-17.5,17.5v25.5h-17.5c-9.7,0-17.5,7.8-17.5,17.5v91.2c-11.1-5.9-22.8-10.6-35-13.8V62.5c0-9.7-7.8-17.5-17.5-17.5h-17.5v-25.6c0-9.7-7.8-17.5-17.5-17.5s-17.5,7.8-17.5,17.5v25.6h-17.5c-9.7,0-17.5,7.8-17.5,17.5v126.2C30.8,222.4-11.2,319,22.5,404.5c33.7,85.5,130.3,127.5,215.8,93.9,85.5-33.7,127.5-130.3,93.9-215.8-1.8-4.5-3.8-9-5.9-13.3v-17h17.5c9.7,0,17.5-7.8,17.5-17.5V105.5c0-9.7-7.8-17.5-17.5-17.5h-.1ZM151.3,80h35v94.2h-35v-94.2ZM177.6,474.2c-72.4,0-131.2-58.7-131.2-131.2s58.7-131.2,131.2-131.2,131.2,58.7,131.2,131.2-58.8,131.1-131.2,131.2h0ZM326.2,217.3h-35v-94.3h35v94.3ZM483.6,45h-17.5v-25.6c0-9.7-7.8-17.5-17.5-17.5s-17.5,7.8-17.5,17.5v25.6h-17.5c-9.7,0-17.5,7.8-17.5,17.5v129.2c0,9.7,7.8,17.5,17.5,17.5h17.5v47.1c0,9.7,7.8,17.5,17.5,17.5s17.5-7.8,17.5-17.5v-47.1h17.5c9.7,0,17.5-7.8,17.5-17.5V62.5c0-9.7-7.8-17.5-17.5-17.5ZM466.1,174.2h-35v-94.2h35v94.2Z"/>
</svg>