<?xml version="1.0" encoding="UTF-8"?>
<svg id="Capa_1" xmlns="http://www.w3.org/2000/svg" version="1.1" xmlns:xlink="http://www.w3.org/1999/xlink" viewBox="0 0 512 512">
  <!-- Generator: Adobe Illustrator 29.1.0, SVG Export Plug-In . SVG Version: 2.1.0 Build 142)  -->
  <defs>
    <style>
      .st0 {
        fill: url(#Nueva_muestra_de_degradado_1);
      }
    </style>
    <linearGradient id="Nueva_muestra_de_degradado_1" data-name="Nueva muestra de degradado 1" x1="75.7" y1="5.5" x2="436.3" y2="366.1" gradientUnits="userSpaceOnUse">
      <stop offset="0" stop-color="#3c36ff"/>
      <stop offset="1" stop-color="#fe37a7"/>
    </linearGradient>
  </defs>
  <path class="st0" d="M40,170.8H16c-8.3,0-14.9,6.7-14.9,14.9s6.7,14.9,14.9,14.9h24c19.8-.7,19.8-29.2,0-29.9ZM496.1,170.8h-24c-8.3,0-14.9,6.7-14.9,14.9s6.7,14.9,14.9,14.9h24c19.8-.7,19.8-29.2,0-29.9ZM92.7,43.6c14.5,13.5,34.6-6.6,21.1-21.1l-17-17c-5.8-5.8-15.3-5.8-21.1,0-5.8,5.8-5.8,15.3,0,21.1l17,17ZM419.4,328c-14.5-13.5-34.6,6.6-21.1,21.1l17,17c5.8,5.8,15.3,5.8,21.1,0,5.8-5.8,5.8-15.3,0-21.1l-17-17ZM92.7,328l-17,17c-5.8,5.8-5.8,15.3,0,21.1,5.8,5.8,15.3,5.8,21.1,0l17-17c13.5-14.5-6.6-34.6-21.1-21.1ZM415.2,5.4l-17,17c-5.8,5.8-5.8,15.3,0,21.1,5.8,5.8,15.3,5.8,21.1,0l17-17c13.5-14.5-6.6-34.6-21.1-21.1ZM256,18.8c-151.2-.9-225.1,190.5-111.7,290.5,17.1,15.8,28.2,37.1,31.6,59.9-20.4,1-19.4,30.3,1.1,29.9v17.1c0,38.4,27.6,70.5,64,77.5-1.5,23.2,31.4,23.1,29.9,0,36.4-7,64-39.1,64-77.5v-17.1c20.5.5,21.5-28.9,1.1-29.9,3.4-22.8,14.5-44.1,31.6-59.9,113.5-100,39.4-291.5-111.7-290.5ZM305.1,416.1c-2.5,65-95.7,65-98.1,0v-17.1h98.1v17.1ZM347.8,287c-23.4,21.5-38.2,50.8-41.8,82.1h-99.9c-10.7-86.7-75.8-79.9-86.3-168.5h72.3c4,0,7.8-1.6,10.6-4.4l32.6-32.6c30.4,15.7,68.3-7.7,67.8-42,0-25.9-21.1-46.9-46.9-46.9-34.4-.5-57.7,37.5-42,67.8l-28.2,28.2h-66.1c21.5-161.8,251.1-161.7,272.6,0h-72.3c-4,0-7.8,1.6-10.6,4.4l-32.6,32.6c-30.4-15.7-68.3,7.7-67.8,42,0,25.9,21.1,46.9,46.9,46.9,34.4.5,57.7-37.5,42-67.8l28.2-28.2h66.1c-3.7,33.2-19.4,64.1-44.5,86.3h0ZM239,121.7c0-9.4,7.7-17.1,17.1-17.1,22.6.9,22.6,33.3,0,34.1-9.4,0-17.1-7.7-17.1-17.1ZM273.1,249.8c0,9.4-7.7,17.1-17.1,17.1-22.6-.9-22.6-33.3,0-34.1,9.4,0,17.1,7.7,17.1,17.1Z"/>
</svg>