<?xml version="1.0" encoding="UTF-8"?>
<svg id="Capa_1" xmlns="http://www.w3.org/2000/svg" version="1.1" xmlns:xlink="http://www.w3.org/1999/xlink" viewBox="0 0 512 512">
  <!-- Generator: Adobe Illustrator 29.1.0, SVG Export Plug-In . SVG Version: 2.1.0 Build 142)  -->
  <defs>
    <style>
      .st0 {
        fill: url(#Nueva_muestra_de_degradado_1);
      }
    </style>
    <linearGradient id="Nueva_muestra_de_degradado_1" data-name="Nueva muestra de degradado 1" x1="52.2" y1="36.8" x2="487.9" y2="472.5" gradientUnits="userSpaceOnUse">
      <stop offset="0" stop-color="#3c36ff"/>
      <stop offset="1" stop-color="#fe37a7"/>
    </linearGradient>
  </defs>
  <path class="st0" d="M481.1,332.3V45.8c0-24.7-20.1-44.8-44.8-44.8H106.6c-24.7,0-44.8,20.1-44.8,44.8v15.9h-15.9C21.1,61.8,1,81.9,1,106.6s20.1,44.8,44.8,44.8h15.9v59.8h-15.9c-24.7,0-44.8,20.1-44.8,44.8s20.1,44.8,44.8,44.8h15.9v59.8h-15.9c-24.7,0-44.8,20.1-44.8,44.8s20.1,44.8,44.8,44.8h15.9v14.9c0,11.9,4.6,23.3,12.9,32,8.5,8.9,19.9,13.9,31.9,13.9h299.8c57.7,0,104.6-47.4,104.6-105.6s-11.4-54.2-29.9-73.1ZM45.8,121.5c-8.2,0-14.9-6.7-14.9-14.9s6.7-14.9,14.9-14.9h30.9c8.2,0,14.9,6.7,14.9,14.9s-6.7,14.9-14.9,14.9h-30.9ZM45.8,270.9c-8.2,0-14.9-6.7-14.9-14.9s6.7-14.9,14.9-14.9h30.9c8.2,0,14.9,6.7,14.9,14.9s-6.7,14.9-14.9,14.9h-30.9ZM76.7,420.4h-30.9c-8.2,0-14.9-6.7-14.9-14.9s6.7-14.9,14.9-14.9h30.9c8.2,0,14.9,6.7,14.9,14.9s-6.7,14.9-14.9,14.9ZM106.6,481.1c-8,0-14.9-7.4-14.9-15.9v-17.5c17.4-6.2,29.9-22.8,29.9-42.3s-12.5-36.1-29.9-42.3v-64.9c17.4-6.2,29.9-22.8,29.9-42.3s-12.5-36.1-29.9-42.3v-64.9c17.4-6.2,29.9-22.8,29.9-42.3s-12.5-36.1-29.9-42.3v-18.5c0-8.2,6.7-14.9,14.9-14.9h329.7c8.2,0,14.9,6.7,14.9,14.9v265.1c-13.6-6.5-28.8-10.1-44.8-10.1-57.7,0-104.6,46.9-104.6,104.6s12.2,56.5,31.8,75.7H106.6ZM406.4,481.1c-41.2,0-74.7-34-74.7-75.7s33.5-74.7,74.7-74.7,74.7,33.5,74.7,74.7-33.5,75.7-74.7,75.7ZM406.4,121.5h-89.6c-8.3,0-14.9,6.7-14.9,14.9s6.7,14.9,14.9,14.9h89.6c8.3,0,14.9-6.7,14.9-14.9s-6.7-14.9-14.9-14.9ZM406.4,241.1h-89.6c-8.3,0-14.9,6.7-14.9,14.9s6.7,14.9,14.9,14.9h89.6c8.3,0,14.9-6.7,14.9-14.9s-6.7-14.9-14.9-14.9ZM266.6,96c-5.8-5.8-15.3-5.8-21.1,0l-49.2,49.2-23.5-23.5c-5.8-5.8-15.3-5.8-21.1,0s-5.8,15.3,0,21.1l34.1,34.1c2.9,2.9,6.7,4.4,10.6,4.4s7.6-1.5,10.6-4.4l59.8-59.8c5.8-5.8,5.8-15.3,0-21.1ZM266.6,215.6c-5.8-5.8-15.3-5.8-21.1,0l-49.2,49.2-23.5-23.5c-5.8-5.8-15.3-5.8-21.1,0s-5.8,15.3,0,21.1l34.1,34.1c2.9,2.9,6.7,4.4,10.6,4.4s7.6-1.5,10.6-4.4l59.8-59.8c5.8-5.8,5.8-15.3,0-21.1ZM266.6,335.1c-5.8-5.8-15.3-5.8-21.1,0l-49.2,49.2-23.5-23.5c-5.8-5.8-15.3-5.8-21.1,0s-5.8,15.3,0,21.1l34.1,34.1c2.9,2.9,6.7,4.4,10.6,4.4s7.6-1.5,10.6-4.4l59.8-59.8c5.8-5.8,5.8-15.3,0-21.1ZM415.5,452.9v-6.9h7.3c32.6-.9,32.6-46.4,0-47.3h-33.1c-9.4,0-9.1-15.8,0-15.8h45.3c10.8,0,10.8-15.5,0-15.4h-19.5v-9.6c-.2-14.1-19.2-14-19.4,0v9.6h-6.4c-32.2.9-32.2,45.8,0,46.7h33.1c11.2,0,11.9,14.5,0,14.5h-45.3c-14.1.2-14,17.2,0,17.4h18.6v6.9c.2,14.1,19.2,14,19.4,0Z"/>
</svg>