<?xml version="1.0" encoding="UTF-8"?>
<svg id="Capa_1" xmlns="http://www.w3.org/2000/svg" version="1.1" xmlns:xlink="http://www.w3.org/1999/xlink" viewBox="0 0 512 512">
  <!-- Generator: Adobe Illustrator 29.1.0, SVG Export Plug-In . SVG Version: 2.1.0 Build 142)  -->
  <defs>
    <style>
      .st0 {
        fill: url(#Nueva_muestra_de_degradado_1);
        fill-rule: evenodd;
      }
    </style>
    <linearGradient id="Nueva_muestra_de_degradado_1" data-name="Nueva muestra de degradado 1" x1="29.5" y1="53.5" x2="420.9" y2="444.8" gradientUnits="userSpaceOnUse">
      <stop offset="0" stop-color="#3c36ff"/>
      <stop offset="1" stop-color="#fe37a7"/>
    </linearGradient>
  </defs>
  <path class="st0" d="M223.6,374.4c21.8,0,39.5-17.7,39.5-39.5s-17.7-39.5-39.5-39.5-39.5,17.7-39.5,39.5,17.7,39.5,39.5,39.5ZM223.6,319.3c8.6,0,15.6,7,15.6,15.6s-7,15.6-15.6,15.6-15.6-7-15.6-15.6,7-15.6,15.6-15.6ZM434.9,429.5c1.5-1.8,2.9-3.6,4.3-5.4,1.4-1.9,2.9-3.7,4.3-5.6,1.9-2.6,3.8-5.2,5.6-7.9.7-1.1,1.4-2.2,2.1-3.3,1.6-2.5,3.2-5,4.7-7.6.6-1,1.2-2,1.8-3.1,1.6-2.9,3.2-5.7,4.7-8.7.4-.7.8-1.5,1.1-2.2,5.7-11.4,10.5-23.4,14.2-35.9.2-.5.3-1.1.4-1.6,1-3.5,1.9-7,2.8-10.6.2-.9.4-1.8.6-2.7.7-3.3,1.4-6.6,2-9.9.2-1,.4-2,.5-2.9.6-3.6,1.1-7.1,1.5-10.7,0-.7.2-1.3.3-2,.5-4.3.8-8.6,1-12.9,0,0,0-.2,0-.3,0,0,0-.1,0-.2.2-3.5.3-7,.3-10.5,0-79.1-40.3-150.9-107.8-192.3-5.6-3.4-13-1.7-16.4,3.9-3.4,5.6-1.7,13,3.9,16.4,12.2,7.5,23.4,16.2,33.6,25.8-22.2,4.5-55,15.1-76.4,39.5-16,18.2-23,40.8-21,67.2,0,.2,0,.4,0,.7.3,2.1,7.3,51,46.6,65,2.7,1.3,8.9,4.9,12.9,9,4.6,8.6,15.6,20.9,33,20.6,1,1,3.1,4.7,3.1,10.8,0,3.6-.8,12.6-8.8,17.8-9.6,6.2-32.5,23.7-37.2,50.8-2.4,13.6.2,27.2,7.6,40.7-29.1,16.4-62.7,25.8-98.4,25.8-91.5,0-168.8-61.3-193.3-144.9,38.8-11.9,53-38.3,53.6-39.5,1.1-2.1,1.5-4.5,1.3-6.9-2.5-21.4,7.4-32.2,11.7-35.9,2.1,0,4.1-.2,6-.3l11,34.4c-15.7,17.2-25.2,40.1-25.2,65.2s5.8,37.5,15.6,52.7c.1.2.2.4.4.7,9.8,14.9,23.3,26.5,38.9,34,0,0,.1,0,.2,0,1.1.5,2.3,1.1,3.5,1.6.5.2,1,.4,1.5.6,1,.4,2,.8,3.1,1.2.7.3,1.5.5,2.2.8.9.3,1.8.6,2.6.9,1.6.5,3.2,1,4.9,1.4.5.1,1,.2,1.5.4,1.3.3,2.6.6,3.9.9.6.1,1.3.2,1.9.3,1.2.2,2.4.4,3.6.6.7,0,1.3.2,2,.2,1.3.1,2.6.3,3.9.4.6,0,1.1,0,1.7.1,1.9.1,3.7.2,5.6.2h0c1.9,0,3.8,0,5.6-.2.6,0,1.1,0,1.7-.1,1.3,0,2.6-.2,3.9-.4.7,0,1.3-.2,2-.2,1.2-.2,2.4-.4,3.6-.6.6-.1,1.3-.2,1.9-.3,1.3-.3,2.6-.5,3.9-.9.5-.1,1-.2,1.5-.4,1.6-.4,3.3-.9,4.9-1.4.9-.3,1.8-.6,2.7-.9.7-.3,1.5-.5,2.2-.8,1-.4,2.1-.8,3.1-1.2.5-.2,1-.4,1.5-.6,1.2-.5,2.3-1,3.5-1.6,0,0,.1,0,.2,0,15.5-7.5,29-19.1,38.9-34,.1-.2.2-.5.4-.7,9.9-15.2,15.6-33.3,15.6-52.7,0-53.5-43.5-97-97-97s-37,5.6-52,15.2l-6.9-21.6c25.7-6.9,30.2-20.3,31-25.3,0-.4.1-.8.1-1.2,0-.5,3.3-51.4,43.9-58.2,14.5-2.4,25.9-9.6,34-21.2,13.4-19.4,13.7-47,12.2-64.2,14.8,1.8,29.3,5.2,43.3,10.2,6.2,2.2,13.1-1,15.3-7.2,2.2-6.2-1-13.1-7.2-15.3-24.3-8.7-49.8-13.1-75.8-13.1s-32.3,1.8-48,5.2C200.1,27.9,164.2,1,122.1,1S54.6,20,37.5,50.6c-3.2,5.8-1.2,13,4.6,16.3,5.8,3.2,13,1.2,16.3-4.6,12.9-23.1,37.4-37.4,63.8-37.4s64.5,24.9,71.5,57.9c.4,1.8.7,3.7.9,5.5,0,.7.2,1.3.3,2,.3,2.6.4,5.2.4,7.7,0,9.9-2,19.3-5.6,28-8.3-5.3-18-8.2-28.1-8.2h-78.9c-10.1,0-19.8,2.9-28.1,8.1-3.6-8.6-5.6-18.1-5.6-28s-5.3-12-12-12-12,5.3-12,12c0,19.4,5.8,37.6,15.7,52.8.1.2.2.4.3.6,6.4,9.7,14.4,18,23.5,24.7-18.6,33.4-28.4,71-28.4,109.5,0,124.3,101.1,225.4,225.4,225.4h0c44.3,0,85.6-12.9,120.5-35.1.4-.2.7-.4,1.1-.6.9-.5,1.7-1.2,2.5-1.7,1.6-1.1,3.2-2.2,4.8-3.3,1.9-1.3,3.7-2.6,5.5-3.9,1-.8,2-1.6,3-2.3,4.1-3.2,8.1-6.5,12-9.9.8-.7,1.6-1.4,2.4-2.1,1.9-1.7,3.8-3.6,5.6-5.4,1-1,2.1-2,3.1-3,1.7-1.8,3.4-3.5,5.1-5.3,1.1-1.2,2.2-2.4,3.3-3.7,1.5-1.7,3-3.4,4.5-5.2ZM276.4,409.6c-.6.6-1.2,1.3-1.9,1.9-1.1,1.1-2.3,2.1-3.5,3.2-.6.6-1.3,1.1-2,1.6-1.2,1-2.5,1.9-3.8,2.8-.7.5-1.5,1-2.2,1.5-1.3.8-2.6,1.6-3.9,2.4-.9.5-1.8.9-2.7,1.4-1.3.6-2.5,1.3-3.8,1.8-1.1.5-2.2.9-3.3,1.3-1.2.4-2.3.9-3.5,1.3-1.3.4-2.7.8-4.1,1.1-1,.3-2.1.6-3.1.8-1.7.3-3.3.6-5,.8-.8.1-1.6.3-2.4.4-2.5.3-5,.4-7.6.4,0,0,0,0,0,0s0,0,0,0c-2.6,0-5.1-.1-7.6-.4-.8,0-1.6-.3-2.4-.4-1.7-.2-3.4-.5-5-.8-1-.2-2.1-.5-3.1-.8-1.4-.4-2.7-.7-4.1-1.1-1.2-.4-2.3-.8-3.5-1.3-1.1-.4-2.2-.8-3.3-1.3-1.3-.6-2.5-1.2-3.8-1.8-.9-.5-1.8-.9-2.7-1.4-1.3-.7-2.6-1.5-3.8-2.3-.8-.5-1.5-1-2.3-1.5-1.3-.9-2.5-1.8-3.7-2.8-.7-.5-1.4-1.1-2-1.7-1.2-1-2.3-2-3.4-3.1-.7-.6-1.3-1.3-1.9-2-.7-.7-1.3-1.5-2-2.2,4.6-2.9,9.9-4.5,15.4-4.5h78.9c5.5,0,10.8,1.6,15.4,4.5-.7.8-1.3,1.5-2,2.2ZM296.7,359.2c0,9.9-2,19.3-5.6,28-8.3-5.3-18-8.1-28.1-8.1h-78.9c-10.1,0-19.8,2.9-28.1,8.1-3.6-8.6-5.6-18.1-5.6-28,0-40.3,32.8-73.1,73.1-73.1s73.1,32.8,73.1,73.1ZM172,228c0,.4,0,.9-.2,1.3,0-.7,0-1.5.2-2.2,0,.3,0,.6,0,.9ZM218.7,88.8c14-3,28.4-4.6,42.8-4.6s.1,0,.2,0c1.5,13.2,2.4,37.5-7.7,52.2-4.3,6.2-10.3,9.9-18.2,11.2-46,7.7-61.6,53.3-63.7,78.2-.4.5-1.2,1.3-2.6,2.2-2.1,1.4-5.8,3.3-12.1,4.9l-12.9-40.5c0,0,.1,0,.2,0,.5-.1,1-.2,1.5-.4,1.6-.4,3.3-.9,4.9-1.4.9-.3,1.8-.6,2.6-.9.8-.3,1.5-.5,2.3-.8,1-.4,2-.8,3.1-1.2.5-.2,1-.4,1.5-.6,1.2-.5,2.3-1,3.5-1.6,0,0,.1,0,.2,0,11.1-5.4,21.2-12.8,29.6-22.1,0,0,0,0,0,0,1-1.1,2-2.3,3-3.5,0,0,0,0,0-.1,1.9-2.4,3.8-4.8,5.5-7.4,0,0,0,0,0,0,.2-.3.4-.5.6-.8.1-.2.2-.4.3-.6,9.9-15.2,15.7-33.4,15.7-52.8s0-.1,0-.2c0-2.8-.2-5.6-.4-8.4,0-.2,0-.4,0-.6ZM82.7,141.8h78.9c5.5,0,10.8,1.6,15.4,4.5-.7.8-1.3,1.5-2,2.2-.6.6-1.2,1.3-1.9,1.9-1.1,1.1-2.3,2.2-3.5,3.2-.6.5-1.3,1.1-1.9,1.6-1.2,1-2.5,1.9-3.8,2.8-.7.5-1.5,1-2.2,1.4-1.3.8-2.6,1.6-3.9,2.4-.9.5-1.7.9-2.6,1.4-1.3.6-2.5,1.3-3.9,1.9-1.1.5-2.1.9-3.2,1.3-1.2.5-2.4.9-3.6,1.3-1.3.4-2.6.7-4,1.1-1.1.3-2.1.6-3.2.8-1.6.3-3.3.6-4.9.8-.8.1-1.7.3-2.5.4-2.5.3-5,.4-7.5.4,0,0-.1,0-.2,0s0,0,0,0c-2.4,0-4.7-.2-7-.4-.4,0-.8,0-1.1-.1-.6,0-1.1-.2-1.7-.3-1.7-.2-3.4-.5-5.1-.8-.2,0-.5-.1-.7-.2-.8-.2-1.6-.4-2.4-.6-1.4-.4-2.8-.7-4.2-1.2-1.2-.4-2.3-.8-3.4-1.3-1.1-.4-2.3-.8-3.4-1.3-1.3-.6-2.5-1.2-3.7-1.8-.9-.5-1.9-.9-2.8-1.4-1.3-.7-2.6-1.5-3.8-2.3-.8-.5-1.5-1-2.3-1.5-1.3-.9-2.5-1.8-3.7-2.8-.7-.5-1.4-1.1-2-1.7-1.2-1-2.3-2-3.4-3.1-.7-.6-1.3-1.3-1.9-2-.7-.7-1.3-1.5-2-2.2,4.6-2.9,9.9-4.5,15.4-4.5ZM85.4,187.8c0,0,.1,0,.2,0,.9.3,1.7.7,2.6,1,.7.3,1.5.5,2.2.8.9.3,1.8.6,2.6.9.3.1.7.2,1,.3.1,0,.2,0,.4.1,1.2.3,2.3.7,3.5,1,.5.1,1,.2,1.6.4,1.3.3,2.5.6,3.8.8,0,0,0,0,0,0,.6.1,1.3.2,1.9.3,1.2.2,2.4.4,3.6.6.7,0,1.3.2,2,.2.6,0,1.2.1,1.8.2,0,0,0,0,0,0,.7,0,1.4.1,2.1.2.6,0,1.1,0,1.7.1,1.2,0,2.5.1,3.8.1l13.1,41c-.9,0-1.8,0-2.7,0-2,0-3.9.6-5.6,1.5-1.2.7-28.7,16.7-26,56.6-3.9,5.4-14.6,17.6-36.1,24.6-1.8-10.8-2.8-21.9-2.8-33.2,0-34.4,8.7-68,25.3-97.8ZM375.9,424.8c3.1-17.8,19.7-30.3,26.7-34.8,18.5-12,22.9-35.1,17.6-51.7-4.2-13.2-13.7-21.3-25.1-20.8-.1,0-.2,0-.4,0-7.4,0-11.5-8.2-11.6-8.5-.5-1-1.1-2-1.8-2.8-8.2-9.6-20.9-15.6-22.3-16.3-.4-.2-.7-.3-1.1-.5-24.7-8.5-30.8-42.3-31.3-45.6-1.4-19.8,3.5-35.9,15.1-49.1,22.3-25.4,62.7-32.4,77.7-34.2,4.5,5.6,8.6,11.5,12.4,17.5.2.3.5.6.7,1,19.6,31.4,30.4,68,30.4,106.6s0,6.5-.2,9.8c-.4,7.4-1.1,14.8-2.3,22.1,0,.6-.2,1.1-.3,1.7-.5,3.1-1.1,6.1-1.7,9.2-.1.6-.3,1.3-.4,1.9-.7,2.9-1.4,5.9-2.2,8.8-.2.6-.4,1.2-.5,1.9-.8,2.9-1.7,5.9-2.7,8.8-.2.6-.4,1.1-.6,1.7-1,3-2.1,6-3.3,8.9-.2.4-.3.9-.5,1.3-1.3,3.2-2.7,6.3-4.1,9.4,0,.2-.2.3-.2.5-3.1,6.6-6.6,13-10.4,19.3-.4.6-.8,1.2-1.2,1.8-1.4,2.3-2.9,4.5-4.4,6.8-.9,1.3-1.8,2.5-2.6,3.7-1.1,1.5-2.2,3-3.3,4.5-1.1,1.5-2.3,2.9-3.4,4.4-.9,1.2-1.9,2.3-2.9,3.5-1.3,1.6-2.7,3.1-4.1,4.7-.8.9-1.7,1.8-2.5,2.7-1.6,1.7-3.1,3.3-4.7,5-.6.6-1.2,1.1-1.7,1.7-5.8,5.7-12,11.1-18.5,16.1-.8.6-1.6,1.3-2.4,1.9-.5.4-1,.7-1.5,1.1-4.1-8.1-5.5-16-4.2-23.6ZM122.1,113.3c21.8,0,39.5-17.7,39.5-39.5s-17.7-39.5-39.5-39.5-39.5,17.7-39.5,39.5,17.7,39.5,39.5,39.5ZM122.1,58.2c8.6,0,15.6,7,15.6,15.6s-7,15.6-15.6,15.6-15.6-7-15.6-15.6,7-15.6,15.6-15.6Z"/>
</svg>