<?xml version="1.0" encoding="UTF-8"?>
<svg id="Capa_1" xmlns="http://www.w3.org/2000/svg" version="1.1" xmlns:xlink="http://www.w3.org/1999/xlink" viewBox="0 0 512 512">
  <!-- Generator: Adobe Illustrator 29.1.0, SVG Export Plug-In . SVG Version: 2.1.0 Build 142)  -->
  <defs>
    <style>
      .st0 {
        fill: url(#Nueva_muestra_de_degradado_1);
      }
    </style>
    <linearGradient id="Nueva_muestra_de_degradado_1" data-name="Nueva muestra de degradado 1" x1="61.8" y1="73.2" x2="499.7" y2="511.1" gradientUnits="userSpaceOnUse">
      <stop offset="0" stop-color="#3c36ff"/>
      <stop offset="1" stop-color="#fe37a7"/>
    </linearGradient>
  </defs>
  <path class="st0" d="M17.1,269.1h19.8v7.9c.7,19.7,29,19.7,29.7,0v-7.9h19.8c8.2,0,14.9-6.7,14.9-14.9v-115.3c0-8.2-6.7-14.9-14.9-14.9h-19.8v-7.9c-.7-19.7-29-19.7-29.7,0v7.9h-19.8c-8.2,0-14.9,6.7-14.9,14.9v115.3c0,8.2,6.7,14.9,14.9,14.9ZM32,153.8h39.5v85.6h-39.5v-85.6h0ZM153.3,236h19.8v7.9c.7,19.7,29,19.7,29.7,0v-7.9h19.8c8.2,0,14.9-6.7,14.9-14.9v-115.3c0-8.2-6.7-14.9-14.9-14.9h-19.8v-7.9c-.7-19.7-29-19.7-29.7,0v7.9h-19.8c-8.2,0-14.9,6.7-14.9,14.9v115.3c0,8.2,6.7,14.9,14.9,14.9ZM168.1,120.7h39.5v85.6h-39.5s0-85.6,0-85.6ZM289.4,202.8h19.8v7.9c.7,19.7,29,19.7,29.7,0v-7.9h19.8c8.2,0,14.9-6.7,14.9-14.9v-115.3c0-8.2-6.7-14.9-14.9-14.9h-19.8v-7.9c-.7-19.7-29-19.7-29.7,0v7.9h-19.8c-8.2,0-14.9,6.7-14.9,14.9v115.3c0,8.2,6.7,14.9,14.9,14.9ZM304.3,87.5h39.5v85.6h-39.5v-85.6ZM494.9,24.7h-19.8v-7.9c-.7-19.7-29-19.7-29.7,0v7.9h-19.8c-8.2,0-14.9,6.7-14.9,14.9v115.3c0,8.2,6.7,14.9,14.9,14.9h19.8v7.9c.7,19.7,29,19.7,29.7,0v-7.9h19.8c8.2,0,14.9-6.7,14.9-14.9V39.5c0-8.2-6.7-14.9-14.9-14.9h0ZM480,140h-39.5V54.4h39.5v85.6ZM494.7,480.3h-12.5v-135.8c0-8.2-6.7-14.9-14.9-14.9h-61.9c-8.2,0-14.9,6.7-14.9,14.9v135.8h-28v-116.9c0-8.2-6.7-14.9-14.9-14.9h-61.9c-8.2,0-14.9,6.7-14.9,14.9v116.9h-28v-105.3c0-4.8-2.3-9.3-6.3-12.1-3.9-2.8-9-3.5-13.5-1.9l-61.9,21.7c-6,2.1-9.9,7.7-9.9,14v83.6h-28v-62.9c0-4.8-2.3-9.4-6.3-12.1-3.9-2.8-9-3.5-13.6-1.9l-61.9,22.1c-5.9,2.1-9.9,7.7-9.9,14v40.8h-14.5c-19.7.7-19.7,29,0,29.7h477.6c19.7-.7,19.7-29,0-29.7h0ZM93.6,480.3h-32.2v-30.3l32.2-11.5v41.8ZM213.2,480.3h-32.2v-73l32.2-11.3v84.3ZM332.9,480.3h-32.2v-102.1h32.2v102.1ZM452.5,480.3h-32.2v-120.9h32.2v120.9ZM17.1,396.2c1.7,0,3.3-.3,5-.9l236.4-84.2h113.3c2.2,0,4.4-.5,6.3-1.4l94.5-44.6-2.1,8.4c-2,8,2.9,16,10.9,18s16-2.9,18-10.9l9.5-38.7c1.6-6.5-1.6-14.6-9-17.4l-35-13.7c-7.7-3-16.3.8-19.3,8.4-3,7.6.8,16.3,8.4,19.3l2.8,1.1-88.5,41.7h-112.5c-1.7,0-3.4.3-5,.9L12.1,367.4c-7.7,2.8-11.8,11.3-9,19,2.2,6.1,7.9,9.9,14,9.9h0Z"/>
</svg>