<?xml version="1.0" encoding="UTF-8"?>
<svg id="svg5194" xmlns="http://www.w3.org/2000/svg" version="1.1" xmlns:svg="http://www.w3.org/2000/svg" xmlns:xlink="http://www.w3.org/1999/xlink" viewBox="0 0 512 512">
  <!-- Generator: Adobe Illustrator 29.1.0, SVG Export Plug-In . SVG Version: 2.1.0 Build 142)  -->
  <defs>
    <style>
      .st0 {
        fill: url(#Nueva_muestra_de_degradado_1);
      }
    </style>
    <linearGradient id="Nueva_muestra_de_degradado_1" data-name="Nueva muestra de degradado 1" x1="75.7" y1="58.9" x2="496.6" y2="479.8" gradientUnits="userSpaceOnUse">
      <stop offset="0" stop-color="#3c36ff"/>
      <stop offset="1" stop-color="#fe37a7"/>
    </linearGradient>
  </defs>
  <path id="layer1" class="st0" d="M214.3,1c-44.4.3-89,15.4-125.6,46.1C4.9,117.2-6.2,242.4,63.9,326.2c60.7,72.5,162.7,90.4,243.4,48.4l99.4,118.8c17.4,20.8,49.1,23.6,69.9,6.2,20.8-17.4,23.5-49,6.1-69.9l-101.7-121.5c47-71.2,44.2-167.7-13.3-236.4C328.3,24.8,271.4.6,214.3,1h0ZM214.6,33.9c47.5-.3,94.8,19.8,127.8,59.2,58.6,70,49.4,173.8-20.6,232.5-70,58.6-173.9,49.4-232.5-20.6-58.6-70-49.4-173.8,20.7-232.5,30.6-25.6,67.7-38.3,104.7-38.6h0ZM199.3,91.6v16.6c.5,21.5,32.6,21.5,33,0v-16.6c.1-9.3-7.5-16.9-16.8-16.7-9.1.2-16.3,7.6-16.2,16.7ZM215.6,141c-9.1.2-16.3,7.6-16.2,16.7v148.7c.5,21.5,32.6,21.5,33,0v-148.7c0-9.3-7.5-16.8-16.8-16.7h0ZM457.4,450.9c6.1,7.2,5.2,17.2-2.1,23.3-7.2,6.1-17.2,5.2-23.3-2.1l-96.7-115.5c2.5-1.9,5.1-3.7,7.6-5.7,6.1-5.1,11.7-10.6,17.1-16.3l97.4,116.2Z"/>
</svg>