<?xml version="1.0" encoding="UTF-8"?>
<svg id="Capa_1" xmlns="http://www.w3.org/2000/svg" version="1.1" xmlns:xlink="http://www.w3.org/1999/xlink" viewBox="0 0 512 512">
  <!-- Generator: Adobe Illustrator 29.1.0, SVG Export Plug-In . SVG Version: 2.1.0 Build 142)  -->
  <defs>
    <style>
      .st0 {
        fill: url(#Nueva_muestra_de_degradado_1);
      }
    </style>
    <linearGradient id="Nueva_muestra_de_degradado_1" data-name="Nueva muestra de degradado 1" x1="54.5" y1="54.5" x2="457.5" y2="457.5" gradientUnits="userSpaceOnUse">
      <stop offset="0" stop-color="#3c36ff"/>
      <stop offset="1" stop-color="#fe37a7"/>
    </linearGradient>
  </defs>
  <path class="st0" d="M180,2.5c31.7,0,62.8,8.5,90,24.5,26.4,15.5,48.4,37.8,63.7,64.2,4.8,8.4,2,19.1-6.4,23.9-2.7,1.5-5.7,2.4-8.7,2.4-6.2,0-12-3.3-15.2-8.7-25.4-44-72.7-71.3-123.4-71.3-78.6,0-142.5,63.9-142.5,142.5s63.9,142.5,142.5,142.5h120c9.6,0,17.5,7.9,17.5,17.5s-7.9,17.5-17.5,17.5h-120C82.1,357.5,2.5,277.9,2.5,180S82.1,2.5,180,2.5M181.7,90.7v2.5c4.4,0,8.7,1.7,11.9,4.7,3.4,3.2,5.4,7.5,5.5,12.2.2,4.7-1.5,9.1-4.7,12.5l-36.3,38.8c-3.9,4.2-6.1,9.6-6.1,15.4s2.1,11.2,6.1,15.4l36.3,38.8c3.2,3.4,4.9,7.9,4.7,12.5-.2,4.7-2.1,9-5.5,12.2-3.3,3-7.5,4.7-11.9,4.7s-9.4-2-12.8-5.6l-36.3-38.8c-10-10.7-15.5-24.6-15.5-39.2s5.5-28.6,15.5-39.2l36.3-38.8c3.3-3.6,7.9-5.6,12.8-5.6v-2.5M329.6,249.8v2.5c4.9,0,9.4,2,12.8,5.6l36.3,38.8c10,10.7,15.5,24.6,15.5,39.2s-5.5,28.6-15.5,39.2l-36.3,38.8c-3.3,3.6-7.9,5.6-12.8,5.6s-8.7-1.7-11.9-4.7c-3.4-3.2-5.4-7.5-5.5-12.2-.2-4.7,1.5-9.1,4.7-12.5l36.3-38.8c3.9-4.2,6.1-9.6,6.1-15.4s-2.1-11.2-6.1-15.4l-36.3-38.8c-3.2-3.4-4.9-7.9-4.7-12.5.2-4.7,2.1-9,5.5-12.2,3.3-3,7.5-4.7,11.9-4.7v-2.5M332,154.5c97.9,0,177.5,79.6,177.5,177.5s-79.6,177.5-177.5,177.5-62.8-8.5-90-24.5c-26.4-15.5-48.4-37.8-63.7-64.2-4.8-8.4-2-19.1,6.4-23.9,2.7-1.5,5.7-2.4,8.7-2.4,6.2,0,12,3.3,15.2,8.7,25.4,44,72.7,71.3,123.4,71.3,78.6,0,142.5-63.9,142.5-142.5s-63.9-142.5-142.5-142.5h-120c-9.6,0-17.5-7.9-17.5-17.5s7.9-17.5,17.5-17.5h120"/>
</svg>