<?xml version="1.0" encoding="UTF-8"?>
<svg id="Capa_1" xmlns="http://www.w3.org/2000/svg" version="1.1" xmlns:xlink="http://www.w3.org/1999/xlink" viewBox="0 0 512 512">
  <!-- Generator: Adobe Illustrator 29.1.0, SVG Export Plug-In . SVG Version: 2.1.0 Build 142)  -->
  <defs>
    <style>
      .st0 {
        fill: url(#Nueva_muestra_de_degradado_1);
      }
    </style>
    <linearGradient id="Nueva_muestra_de_degradado_1" data-name="Nueva muestra de degradado 1" x1="54.3" y1="73.5" x2="480.2" y2="499.4" gradientUnits="userSpaceOnUse">
      <stop offset="0" stop-color="#3c36ff"/>
      <stop offset="1" stop-color="#fe37a7"/>
    </linearGradient>
  </defs>
  <path class="st0" d="M510,345.4v111.1c0,17.5-14.2,31.7-31.7,31.7H33.8c-17.5,0-31.7-14.2-31.7-31.7V138.9c0-17.5,14.2-31.7,31.7-31.7h174.6c8.8,0,15.9,7.1,15.9,15.9s-7.1,15.9-15.9,15.9H33.8v63.5h174.6c8.8,0,15.9,7.1,15.9,15.9s-7.1,15.9-15.9,15.9H33.8v222.4h444.5v-111.1c0-8.8,7.1-15.9,15.9-15.9s15.9,7.1,15.9,15.9v-.2ZM81.4,297.7c-8.8,0-15.9,7.1-15.9,15.9s7.1,15.9,15.9,15.9h127.7c8.8,0,15.9-7.1,15.9-15.9s-7.1-15.9-15.9-15.9h-127.7ZM81.4,377.7c-8.8,0-15.9,7.1-15.9,15.9s7.1,15.9,15.9,15.9h293.7c8.8,0,15.9-7.1,15.9-15.9s-7.1-15.9-15.9-15.9H81.4ZM510,87.3v63.5c0,87.5-32.3,138.5-119.1,188.4-2.4,1.4-5.2,2.1-7.9,2.1s-5.5-.7-7.9-2.1c-86.8-50-119.1-101.1-119.1-188.4v-63.5c0-6.3,3.8-12.1,9.6-14.6l111.1-47.6c4-1.7,8.5-1.7,12.5,0l111.1,47.6c5.8,2.5,9.6,8.3,9.6,14.6h0ZM478.2,97.7l-95.2-40.8-95.2,40.8v53c0,73.2,24.3,113.6,95.2,156.2,71-42.5,95.2-82.9,95.2-156.2v-53ZM348.6,161.8c-4.9-7.3-14.8-9.2-22-4.4-7.3,4.9-9.3,14.7-4.4,22l31.7,47.6c2.8,4.2,7.5,6.8,12.5,7.1h.7c4.8,0,9.4-2.2,12.4-6l63.5-79.4c5.5-6.9,4.4-16.8-2.5-22.3-6.8-5.4-16.8-4.3-22.3,2.5l-49.9,62.4-19.7-29.5h0Z"/>
</svg>