<?xml version="1.0" encoding="UTF-8"?>
<svg id="Layer_1" xmlns="http://www.w3.org/2000/svg" version="1.1" xmlns:xlink="http://www.w3.org/1999/xlink" viewBox="0 0 512 512">
  <!-- Generator: Adobe Illustrator 29.1.0, SVG Export Plug-In . SVG Version: 2.1.0 Build 142)  -->
  <defs>
    <style>
      .st0 {
        fill: url(#Nueva_muestra_de_degradado_1);
      }
    </style>
    <linearGradient id="Nueva_muestra_de_degradado_1" data-name="Nueva muestra de degradado 1" x1="28.2" y1="50.8" x2="483.8" y2="506.4" gradientUnits="userSpaceOnUse">
      <stop offset="0" stop-color="#3c36ff"/>
      <stop offset="1" stop-color="#fe37a7"/>
    </linearGradient>
  </defs>
  <path class="st0" d="M504.4,436.4L295.2,88.1c-8.2-13.7-23.3-22.2-39.2-22.2s-31,8.5-39.2,22.2L7.6,436.4c-8.5,14.2-8.8,32-.7,46.4,8.1,14.4,23.4,23.4,39.9,23.4h418.4c16.5,0,31.8-9,39.9-23.4,8.1-14.4,7.9-32.2-.7-46.4ZM476.2,466.4c-2.2,4-6.4,6.4-11,6.4H46.8c-4.5,0-8.7-2.5-11-6.4-2.2-4-2.2-8.9.2-12.8L245.2,105.3c2.3-3.8,6.4-6.1,10.8-6.1s8.5,2.3,10.8,6.1l209.2,348.3c2.3,3.9,2.4,8.8.2,12.8ZM256.2,203c-12.6,0-22.5,6.8-22.5,18.9,0,36.8,4.3,89.7,4.3,126.5,0,9.6,8.3,13.6,18.2,13.6s17.9-4,17.9-13.6c0-36.8,4.3-89.7,4.3-126.5s-10.2-18.9-22.2-18.9ZM256.5,383.3c-13.6,0-23.7,10.8-23.7,23.8s10.2,23.8,23.7,23.8,23.4-11.1,23.4-23.8-10.8-23.8-23.4-23.8ZM69,158.7c5.6,5.6,14.6,5.6,20.1,0l64-64.2c5.5-5.7,5.3-14.7-.3-20.2-5.5-5.3-14.2-5.3-19.8,0l-39.7,39.9V20.1c0-7.9-6.4-14.3-14.2-14.3s-14.2,6.4-14.2,14.3v94l-39.7-39.9c-5.6-5.5-14.6-5.3-20.1.4-5.3,5.5-5.3,14.3,0,19.8l64,64.2ZM422.9,10c5.6-5.6,14.6-5.6,20.1,0l64,64.2c5.5,5.7,5.3,14.7-.3,20.2-5.5,5.3-14.2,5.3-19.8,0l-39.7-39.9v94c0,7.9-6.4,14.3-14.2,14.3s-14.2-6.4-14.2-14.3V54.6l-39.7,39.9c-5.6,5.5-14.6,5.3-20.1-.4-5.3-5.5-5.3-14.3,0-19.8l64-64.2Z"/>
</svg>