<?xml version="1.0" encoding="UTF-8"?>
<svg id="Capa_1" xmlns="http://www.w3.org/2000/svg" version="1.1" xmlns:xlink="http://www.w3.org/1999/xlink" viewBox="0 0 512 512">
  <!-- Generator: Adobe Illustrator 29.1.0, SVG Export Plug-In . SVG Version: 2.1.0 Build 142)  -->
  <defs>
    <style>
      .st0 {
        fill: url(#Nueva_muestra_de_degradado_1);
      }
    </style>
    <linearGradient id="Nueva_muestra_de_degradado_1" data-name="Nueva muestra de degradado 1" x1="82.3" y1="121.6" x2="457.6" y2="496.9" gradientUnits="userSpaceOnUse">
      <stop offset="0" stop-color="#3c36ff"/>
      <stop offset="1" stop-color="#fe37a7"/>
    </linearGradient>
  </defs>
  <path class="st0" d="M256,135h-62.8c-7.4,0-13.4-6-13.4-13.4s6-13.4,13.4-13.4h62.8c7.4,0,13.4,6,13.4,13.4s-6,13.4-13.4,13.4ZM193.2,161.9c-7.4,0-13.4,6-13.4,13.4s6,13.4,13.4,13.4h35.9c7.4,0,13.4-6,13.4-13.4s-6-13.4-13.4-13.4h-35.9ZM354.6,424.5c7.4,0,13.4-6,13.4-13.4v-10.9c15.7-5.2,26.9-19.1,26.9-35.5v-1.2c0-24.6-24-35.1-38.1-37.5-.2,0-15.7-3.3-15.7-10.9v-1.2c0-5.8,6.2-10.8,13.4-10.8s8.1,2.2,9.4,5.4c2.8,6.9,10.6,10.2,17.5,7.4,6.9-2.8,10.2-10.6,7.4-17.5-3.7-9.1-11.4-16.2-20.9-19.7v-11.1c0-7.4-6-13.4-13.4-13.4s-13.4,6-13.4,13.4v10.9c-15.7,5.2-26.9,19.1-26.9,35.5v1.2c0,24.5,24,35.1,38.1,37.4.2,0,15.7,3.3,15.7,10.9v1.2c0,5.8-6.2,10.8-13.4,10.8,0,0,0,0,0,0s0,0,0,0c-4.2,0-8.1-2.2-9.4-5.4-2.8-6.9-10.6-10.2-17.5-7.4-6.9,2.8-10.2,10.6-7.4,17.5,3.7,9.1,11.4,16.2,20.9,19.7v11.1c0,7.4,6,13.4,13.4,13.4ZM506,197.3c-7.3,12.7-20.5,20.3-35.2,20.3h-156.9c-14.7,0-27.8-7.6-35.2-20.3-7.3-12.7-7.3-27.9,0-40.6l43.6-75.5h-156c-7.4,0-13.4,6-13.4,13.4v138c4.4-.5,8.9-.8,13.4-.8,59.3,0,107.6,48.3,107.6,107.6s-48.3,107.6-107.6,107.6-9-.3-13.4-.8v25.1c0,7.4,6,13.4,13.4,13.4h260c7.4,0,13.4-6,13.4-13.4v-215.2c0-7.4,6-13.4,13.4-13.4s13.4,6,13.4,13.4v215.2c0,22.2-18.1,40.3-40.3,40.3H166.3c-22.2,0-40.3-18.1-40.3-40.3v-28.2l-56.7,56.7c-7.9,7.9-18.2,11.8-28.5,11.8h0c-10.3,0-20.6-3.9-28.5-11.8-15.7-15.7-15.7-41.3,0-57l56.9-56.9c-6.7-14-10.5-29.8-10.5-46.4,0-45.1,27.9-83.8,67.3-99.7V94.6c0-22.2,18.1-40.3,40.3-40.3h171.5l19.3-33.5c7.3-12.7,20.5-20.3,35.2-20.3s27.8,7.6,35.2,20.3l78.4,135.9c7.3,12.7,7.3,27.9,0,40.6ZM104,427c-7.3-5.2-14-11.4-19.8-18.2l-52.9,52.9c-5.2,5.2-5.2,13.8,0,19,5.2,5.2,13.8,5.2,19,0l53.7-53.7ZM166.3,258.7c-44.5,0-80.7,36.2-80.7,80.7s36.2,80.7,80.7,80.7,80.7-36.2,80.7-80.7-36.2-80.7-80.7-80.7ZM482.7,170.1l-78.4-135.9c-3.6-6.2-9.5-6.9-11.9-6.9-2.4,0-8.3.7-11.9,6.9l-78.4,135.9c-3.6,6.2-1.2,11.7,0,13.7,1.2,2.1,4.7,6.9,11.9,6.9h156.9c7.2,0,10.7-4.8,11.9-6.9,1.2-2.1,3.6-7.5,0-13.7ZM392.4,46.5c-7.4,0-13.4,6-13.4,13.4v53.8c0,7.4,6,13.4,13.4,13.4s13.4-6,13.4-13.4v-53.8c0-7.4-6-13.4-13.4-13.4ZM392.4,145.1c-7.4,0-13.4,6-13.4,13.4v9c0,7.4,6,13.4,13.4,13.4s13.4-6,13.4-13.4v-9c0-7.4-6-13.4-13.4-13.4Z"/>
</svg>