<?xml version="1.0" encoding="UTF-8"?>
<svg id="Capa_1" xmlns="http://www.w3.org/2000/svg" version="1.1" xmlns:xlink="http://www.w3.org/1999/xlink" viewBox="0 0 512 512">
  <!-- Generator: Adobe Illustrator 29.1.0, SVG Export Plug-In . SVG Version: 2.1.0 Build 142)  -->
  <defs>
    <style>
      .st0 {
        fill: url(#Nueva_muestra_de_degradado_1);
      }
    </style>
    <linearGradient id="Nueva_muestra_de_degradado_1" data-name="Nueva muestra de degradado 1" x1="67.6" y1="67.6" x2="475.5" y2="475.5" gradientUnits="userSpaceOnUse">
      <stop offset="0" stop-color="#3c36ff"/>
      <stop offset="1" stop-color="#fe37a7"/>
    </linearGradient>
  </defs>
  <path class="st0" d="M233.5,211.2h-15.2c-8.1,0-15-6.2-15.4-14.2s6.5-15.8,15-15.8h16c5.5,0,10.4,3,13,7.5s7.4,7.5,12.7,7.5h1c11,0,17.9-11.7,12.7-21.3s-18.4-20.7-32.3-22.9v-15.8c0-8-6.5-14.4-14.4-14.4h-.9c-8,0-14.4,6.5-14.4,14.4v15.8c-21.5,3.2-38.1,21.9-38.1,44.3s21,44.7,45.6,44.7h15.2c8.1,0,15,6.2,15.4,14.2.4,8-6.5,15.8-15,15.8h-16.7c-5.3,0-10-2.9-12.5-7.2s-7.2-7.3-12.3-7.3h-1.3c-11,0-18,11.8-12.6,21.4s18.4,20.4,32.3,22.4v12.8c0,8,6.5,14.4,14.4,14.4h.9c8,0,14.4-6.5,14.4-14.4v-12.8c21.5-3.2,38.1-21.9,38.1-44.3s-21-44.7-45.6-44.7h0ZM442.9,283.1c4.8-18.4,7.3-37.5,7.3-57,0-59.9-23.3-116.1-65.6-158.5S286,2,226.1,2,110,25.3,67.6,67.6C25.3,110,2,166.3,2,226.1s23.3,116.1,65.6,158.5c42.3,42.3,98.6,65.6,158.5,65.6s38.6-2.5,57-7.3c19.5,39.7,60.3,67.1,107.4,67.1,68.6,0,119.5-53.6,119.5-119.5s-45.3-98.5-67.1-107.4h0ZM226.1,420.4c-107.2,0-194.3-87.2-194.3-194.3S119,31.8,226.1,31.8s194.3,87.2,194.3,194.3c-1.1,23.7-2,32.2-5.8,47.3-7.8-1.6-15.8-2.4-24.1-2.4s-4.3,0-6.4.2c4.1-14.3,6.3-29.4,6.3-45.1,0-90.6-73.7-164.3-164.3-164.3S61.8,135.5,61.8,226.1s73.7,164.3,164.3,164.3,30.7-2.2,45.1-6.3c-.1,2.1-.2,4.2-.2,6.4,0,8.3.8,16.3,2.4,24.1-15.2,3.8-31,5.8-47.3,5.8h0ZM278,350.3c-16,6.7-33.5,10.4-51.9,10.4-74.2,0-134.6-60.4-134.6-134.6s60.4-134.6,134.6-134.6,134.6,60.4,134.6,134.6-3.7,35.9-10.4,51.9c-33.6,12-60.2,38.7-72.3,72.3ZM390.5,480.2c-49.5,0-89.7-40.3-89.7-89.7s40.3-89.7,89.7-89.7,89.7,40.3,89.7,89.7-40.3,89.7-89.7,89.7ZM390.5,430.4h0c8.2,0,14.9,6.7,14.9,14.9h0c0,8.2-6.7,14.9-14.9,14.9h0c-8.2,0-14.9-6.7-14.9-14.9h0c0-8.2,6.7-14.9,14.9-14.9ZM390.5,322.8h0c8.2,0,14.9,6.7,14.9,14.9v58.8c0,8.2-6.7,14.9-14.9,14.9h0c-8.2,0-14.9-6.7-14.9-14.9v-58.8c0-8.2,6.7-14.9,14.9-14.9Z"/>
</svg>