<?xml version="1.0" encoding="utf-8"?>
<!-- Generator: Adobe Illustrator 25.0.0, SVG Export Plug-In . SVG Version: 6.00 Build 0)  -->
<svg version="1.1" xmlns="http://www.w3.org/2000/svg" xmlns:xlink="http://www.w3.org/1999/xlink" x="0px" y="0px"
	viewBox="0 0 32 32" style="enable-background:new 0 0 32 32;" xml:space="preserve">
<style type="text/css">
	.st0{fill="currentColor";}
</style>
<g id="Capa_11">
</g>
<g id="Capa_2">
	<g id="Capa_11_1_">
	</g>
	<g>
		<path class="st0" d="M24.3,0.8H7.7c-3.9,0-6.9,3.2-6.9,6.9v16.6c0,3.9,3.2,6.9,6.9,6.9h16.6c3.8,0,6.9-3.2,6.9-6.9V7.7
			C31.2,3.9,28.1,0.8,24.3,0.8z M28.4,24.3c0,2.3-1.8,4.1-4.1,4.1H7.7c-2.3,0-4.1-1.8-4.1-4.1V7.7c0-2.3,1.8-4.1,4.1-4.1h16.6
			c2.3,0,4.1,1.8,4.1,4.1V24.3z"/>
		<path class="st0" d="M16,8.5c-4.1,0-7.5,3.4-7.5,7.5c0,4.1,3.4,7.5,7.5,7.5s7.5-3.4,7.5-7.5C23.5,11.9,20.1,8.5,16,8.5z M16,20.7
			c-2.6,0-4.7-2.1-4.7-4.7c0-2.6,2.1-4.7,4.7-4.7s4.7,2.1,4.7,4.7C20.7,18.6,18.6,20.7,16,20.7z"/>
		<path class="st0" d="M24.3,6.4c-0.8,0-1.3,0.6-1.3,1.3c0,0.8,0.6,1.3,1.3,1.3c0.8,0.1,1.3-0.6,1.3-1.3C25.6,6.9,25.1,6.4,24.3,6.4
			z"/>
	</g>
</g>
</svg>
