<?xml version="1.0" encoding="UTF-8"?>
<svg id="Layer_1" xmlns="http://www.w3.org/2000/svg" version="1.1" xmlns:xlink="http://www.w3.org/1999/xlink" viewBox="0 0 512 512">
  <!-- Generator: Adobe Illustrator 29.1.0, SVG Export Plug-In . SVG Version: 2.1.0 Build 142)  -->
  <defs>
    <style>
      .st0 {
        fill: url(#Nueva_muestra_de_degradado_1);
      }
    </style>
    <linearGradient id="Nueva_muestra_de_degradado_1" data-name="Nueva muestra de degradado 1" x1="91.7" y1="91.6" x2="420.5" y2="420.4" gradientUnits="userSpaceOnUse">
      <stop offset="0" stop-color="#3c36ff"/>
      <stop offset="1" stop-color="#fe37a7"/>
    </linearGradient>
  </defs>
  <path class="st0" d="M294.9,278.7v1.1c0,15.4-10.3,28.4-24.7,33.8v8.8c0,7.8-6.3,14.1-14.1,14.1s-14.1-6.3-14.1-14.1v-9.1c-8.6-3.5-15.6-10.1-19-18.6-2.9-7.2.5-15.4,7.8-18.4,7.2-2.9,15.4.5,18.4,7.8.9,2.2,3.8,3.8,7,3.8,5.7,0,10.6-3.7,10.6-8.1v-1.1c0-4.5-9.7-7.7-13-8.3-13.5-2.2-36.4-12.4-36.4-36.1v-1.1c0-15.4,10.3-28.4,24.7-33.8v-8.8c0-7.8,6.3-14.1,14.1-14.1s14.1,6.3,14.1,14.1v9.1c8.6,3.5,15.6,10.1,19,18.6,2.9,7.2-.5,15.4-7.8,18.4-7.2,2.9-15.5-.5-18.4-7.8-.9-2.2-3.8-3.8-7-3.8-5.7,0-10.6,3.7-10.6,8.1v1.1c0,4.5,9.7,7.7,13,8.3,13.5,2.2,36.4,12.4,36.4,36.1ZM511,256c0,8.3-6.7,14.9-14.9,14.9h-8c-7.4,116.5-100.6,209.7-217.1,217.1v8c0,8.3-6.7,14.9-14.9,14.9s-14.9-6.7-14.9-14.9v-8c-116.5-7.4-209.6-100.6-217-217.1h-8.1c-8.3,0-14.9-6.7-14.9-14.9s6.7-14.9,14.9-14.9h8.1C31.4,124.6,124.6,31.4,241.1,24v-8c0-8.3,6.7-14.9,14.9-14.9s14.9,6.7,14.9,14.9v8c116.5,7.4,209.7,100.6,217.1,217.1h8c8.3,0,14.9,6.7,14.9,14.9ZM270.9,50.9v41.3c78.9,7.1,141.8,69.9,148.9,148.8h41.3c-1.6-22.5-6.8-44.3-15.6-65.1-10.4-24.5-25.2-46.5-44.1-65.4s-40.9-33.7-65.4-44.1c-20.8-8.8-42.6-14-65.1-15.6ZM364.3,256c0-8.3,6.7-14.9,14.9-14.9h13.5c-3.3-31.1-17.1-59.9-39.5-82.3-22.4-22.4-51.3-36.2-82.4-39.5v13.5c0,8.3-6.7,14.9-14.9,14.9s-14.9-6.7-14.9-14.9v-13.5c-31.1,3.3-59.9,17.1-82.3,39.5-22.4,22.4-36.1,51.2-39.5,82.3h13.4c8.3,0,14.9,6.7,14.9,14.9s-6.7,14.9-14.9,14.9h-13.4c3.3,31.1,17.1,59.9,39.5,82.3,22.4,22.4,51.2,36.1,82.3,39.5v-13.5c0-8.3,6.7-14.9,14.9-14.9s14.9,6.7,14.9,14.9v13.5c31.1-3.3,59.9-17.1,82.4-39.5,22.4-22.4,36.1-51.2,39.5-82.3h-13.5c-8.3,0-14.9-6.7-14.9-14.9ZM51,241.1h41.3c7.1-78.9,69.9-141.7,148.8-148.8v-41.3c-22.5,1.6-44.3,6.8-65,15.6-24.5,10.4-46.5,25.2-65.4,44.1-18.9,18.9-33.7,40.9-44.1,65.4-8.8,20.8-14,42.6-15.6,65.1ZM241.1,461.1v-41.3c-78.9-7.1-141.7-69.9-148.8-148.8h-41.3c1.6,22.5,6.8,44.3,15.6,65.1,10.4,24.5,25.2,46.5,44.1,65.4,18.9,18.9,40.9,33.7,65.4,44.1,20.7,8.8,42.6,14,65,15.6ZM461.1,270.9h-41.3c-7.1,78.9-70,141.8-148.9,148.8v41.3c22.5-1.6,44.4-6.8,65.1-15.6,24.5-10.4,46.5-25.2,65.4-44.1,18.9-18.9,33.7-40.9,44.1-65.4,8.8-20.8,14-42.6,15.6-65.1Z"/>
</svg>