<?xml version="1.0" encoding="UTF-8"?>
<svg id="Capa_1" xmlns="http://www.w3.org/2000/svg" version="1.1" xmlns:xlink="http://www.w3.org/1999/xlink" viewBox="0 0 512 512">
  <!-- Generator: Adobe Illustrator 29.1.0, SVG Export Plug-In . SVG Version: 2.1.0 Build 142)  -->
  <defs>
    <style>
      .st0 {
        fill: url(#Nueva_muestra_de_degradado_11);
      }

      .st1 {
        fill: url(#Nueva_muestra_de_degradado_1);
      }
    </style>
    <linearGradient id="Nueva_muestra_de_degradado_1" data-name="Nueva muestra de degradado 1" x1="-22.7" y1="107.9" x2="345.8" y2="476.4" gradientUnits="userSpaceOnUse">
      <stop offset="0" stop-color="#3c36ff"/>
      <stop offset="1" stop-color="#fe37a7"/>
    </linearGradient>
    <linearGradient id="Nueva_muestra_de_degradado_11" data-name="Nueva muestra de degradado 1" x1="166.2" y1="35.6" x2="534.7" y2="404.1" xlink:href="#Nueva_muestra_de_degradado_1"/>
  </defs>
  <g id="Layer_6">
    <path class="st1" d="M306.5,468.9c-16.6,3.9-33.5,5.8-50.5,5.8-45.8,0-90.5-14.6-127.6-41.4v-13.3c0-20.1,16.3-36.5,36.5-36.5h36.5c30.2,0,54.7-24.5,54.7-54.7s-24.5-54.7-54.7-54.7-36.5-16.3-36.5-36.5c0-30.2-24.5-54.7-54.7-54.7h-60.2c12.2-34.5,32.9-65.3,60.2-89.7v35c0,10.1,8.2,18.2,18.2,18.2s18.2-8.2,18.2-18.2V55.5c0-10.1-8.2-18.2-18.2-18.2H55.5c-10.1,0-18.2,8.2-18.2,18.2s8.2,18.2,18.2,18.2h22.6c-100.6,98.8-102,260.3-3.3,360.9,62.4,63.6,153.5,90,240.2,69.7,9.6-3.1,14.8-13.4,11.8-22.9-2.7-8.5-11.3-13.8-20.1-12.4h-.2ZM37.3,256c.1-12.2,1.3-24.4,3.5-36.5h69.5c10.1,0,18.2,8.2,18.2,18.2,0,40.3,32.6,72.9,72.9,72.9s18.2,8.2,18.2,18.2-8.2,18.2-18.2,18.2h-36.5c-33.5.1-62.6,23.1-70.5,55.6-36.7-40.1-57.1-92.4-57.1-146.7Z"/>
    <path class="st0" d="M456.5,438.3h-22.6c100.6-98.8,102-260.3,3.3-360.9C374.7,13.8,283.7-12.6,196.9,7.7c-9.6,3.1-14.8,13.4-11.8,22.9,2.7,8.5,11.3,13.8,20.1,12.4,16.6-3.9,33.6-5.8,50.7-5.8,19.7,0,39.4,2.8,58.3,8.2-35.7,18.6-49.7,62.6-31.1,98.3,12.4,23.9,37,39,63.9,39.3h18.2c20.1,0,36.5,16.3,36.5,36.5v54.7c0,30.2,24.5,54.7,54.7,54.7h5.5c-12.2,34.5-32.9,65.3-60.2,89.7v-35c0-10.1-8.2-18.2-18.2-18.2s-18.2,8.2-18.2,18.2v72.9c0,10.1,8.2,18.2,18.2,18.2h72.9c10.1,0,18.2-8.2,18.2-18.2s-8.2-18.2-18.2-18.2ZM456.5,292.5c-10.1,0-18.2-8.2-18.2-18.2v-54.7c0-40.3-32.6-72.9-72.9-72.9h-18.2c-20.1,0-36.5-16.3-36.5-36.5s16.3-36.5,36.5-36.5h29.5c72.8,47.1,110.1,133.4,94.6,218.7h-14.8Z"/>
  </g>
</svg>