<?xml version="1.0" encoding="UTF-8"?>
<svg id="Capa_1" xmlns="http://www.w3.org/2000/svg" version="1.1" xmlns:xlink="http://www.w3.org/1999/xlink" viewBox="0 0 512 512">
  <!-- Generator: Adobe Illustrator 29.1.0, SVG Export Plug-In . SVG Version: 2.1.0 Build 142)  -->
  <defs>
    <style>
      .st0 {
        fill: url(#Nueva_muestra_de_degradado_1);
      }
    </style>
    <linearGradient id="Nueva_muestra_de_degradado_1" data-name="Nueva muestra de degradado 1" x1="73.3" y1="30.6" x2="434.3" y2="391.6" gradientUnits="userSpaceOnUse">
      <stop offset="0" stop-color="#3c36ff"/>
      <stop offset="1" stop-color="#fe37a7"/>
    </linearGradient>
  </defs>
  <path class="st0" d="M241.1,264.8v24.8c-15.6,6-26.7,21.1-26.7,38.8s18.6,41.6,41.6,41.6h2c5.6,1,9.8,5.8,9.8,11.7s-5.3,11.8-11.8,11.8-11.8-5.3-11.8-11.8h-29.7c0,17.7,11.1,32.8,26.7,38.8v24.8h29.7v-24.8c15.6-6,26.7-21.1,26.7-38.8s-18.6-41.5-41.6-41.5h-2c-5.6-1-9.8-5.8-9.8-11.7s5.3-11.8,11.8-11.8,11.8,5.3,11.8,11.8h29.7c0-17.7-11.1-32.8-26.7-38.8v-24.8h-29.7,0ZM266.4,130.3l-10.3-10.2-10.4,10.1c-5.5,5.3-134.7,131.9-134.7,234.8s65.1,145,145,145,145-65.1,145-145-129.1-229.3-134.6-234.7ZM256,480.3c-63.6,0-115.3-51.7-115.3-115.3s85.1-171,115.2-202.8c30.1,32.2,115.4,129.8,115.4,202.8s-51.7,115.3-115.3,115.3h0ZM453.9,51.3c-16.4-22.3-32.7-38.4-33.4-39.1l-10.3-10.2-10.4,10.1c-.7.7-17,16.6-33.5,38.8-23.1,31.1-34.8,58.6-34.8,81.8,0,43.4,35.3,78.7,78.7,78.7s78.7-35.3,78.7-78.7-11.7-50-34.8-81.3h-.2ZM410,181.6c-27,0-48.9-22-48.9-48.9s29.4-66.8,48.9-88.3c19.5,21.8,49,60.7,49,88.3s-22,48.9-48.9,48.9h-.1ZM180.6,132.7c0-22.7-11.7-50-34.8-81.3-16.4-22.3-32.7-38.4-33.4-39.1l-10.3-10.2-10.4,10.1c-.7.7-17,16.6-33.5,38.8-23.1,31.1-34.8,58.6-34.8,81.8,0,43.4,35.3,78.7,78.7,78.7s78.7-35.3,78.7-78.7h-.2ZM102,181.6c-27,0-48.9-22-48.9-48.9s29.4-66.8,48.9-88.3c19.5,21.8,49,60.7,49,88.3s-22,48.9-48.9,48.9h0Z"/>
</svg>