<?xml version="1.0" encoding="UTF-8"?>
<svg id="Capa_1" xmlns="http://www.w3.org/2000/svg" version="1.1" xmlns:xlink="http://www.w3.org/1999/xlink" viewBox="0 0 512 512">
  <!-- Generator: Adobe Illustrator 29.1.0, SVG Export Plug-In . SVG Version: 2.1.0 Build 142)  -->
  <defs>
    <style>
      .st0 {
        fill: url(#Nueva_muestra_de_degradado_1);
      }
    </style>
    <linearGradient id="Nueva_muestra_de_degradado_1" data-name="Nueva muestra de degradado 1" x1="116.3" y1="135.7" x2="399.7" y2="419.1" gradientUnits="userSpaceOnUse">
      <stop offset="0" stop-color="#3c36ff"/>
      <stop offset="1" stop-color="#fe37a7"/>
    </linearGradient>
  </defs>
  <path class="st0" d="M414.8,284.5c-10.5.6-20.1,5.7-26.9,14.1l-54.9,48.6c0-1,0-2-.2-2.6-2.3-25.4-21.6-45.6-44.1-46.2l-109.9-1.5c-6.9,0-13.5.7-19.4,2.1-6.8,1.2-13.7,3.5-20.7,6.9-4,1.8-7.7,3.9-11.3,6.4l-67.9,45.1c-5.7,3.1-9.5,9.1-9.5,16,0,10.1,8.2,18.2,18.3,18.2s7.1-1.1,10.1-3.1l69.4-46.1c1.9-1.3,3.9-2.5,6.2-3.5,4.5-2.1,8.3-3.4,12.8-4.3,4-.9,7.9-1.4,11.8-1.4l109.4,1.5c2.5,0,7.7,5.2,8.5,14.4,0,2.8-.4,4.3-.5,4.6-.8,2.4-1.9,3.3-1.5,3.4l-76.7-1c-9.9-.6-18.3,7.9-18.5,18s7.9,18.3,18,18.5l76.9,1c1.9-.3,22.7.4,25.3.3,13.5,0,25.9-6.1,34.4-16.7l59.3-52.5c1-.9,2.6-2.7,3.4-3.8.5.2,2.1.3,4.4,2.9,2.6,2.8,4.2,7.4,4.2,11.8s-.6,4.7-1.2,6l-80.3,81.2c-.6.6-1.2,1.4-1.8,2.1-1.8,2.4-3.1,3.7-6.1,3.6l-116.3-1.5c-15.2,0-28.4,7-36.9,19.9l-23.6,34.8c-5.6,7.1-5.1,17.5,1.5,24,3.5,3.5,8.2,5.3,12.8,5.3s9.4-1.8,13-5.4,1.5-1.7,2.2-2.6l24.3-35.8c2.5-3.8,5.1-3.7,6.1-3.8l116.3,1.5c13.6-.2,26.4-6.1,35.2-17.4l80.8-81.7c.7-.7,1.3-1.4,1.8-2.2,5.5-7.7,8.5-17.6,8.5-28.1s-5-26.8-13.5-36.2c-9.1-10.1-21.3-15.7-33.5-14.8ZM279.1,1c-37.4,0-67.8,30.4-67.8,67.8s6.2,31.7,16.2,43.5c-39.1,19.2-66.1,59.2-66.1,105.6v32.2c0,10.1,8.2,18.2,18.2,18.2h199c10.1,0,18.2-8.2,18.2-18.2v-32.2c0-46.4-27-86.4-66.1-105.6,10-11.8,16.2-26.9,16.2-43.5,0-37.4-30.4-67.8-67.8-67.8ZM360.4,232h-162.5v-14c0-44.8,36.5-81.3,81.3-81.3s81.3,36.5,81.3,81.3v14ZM247.7,68.8c0-17.3,14.1-31.4,31.4-31.4s31.4,14.1,31.4,31.4-14.1,31.4-31.4,31.4-31.4-14.1-31.4-31.4Z"/>
</svg>