<?xml version="1.0" encoding="UTF-8"?>
<svg id="Capa_1" xmlns="http://www.w3.org/2000/svg" version="1.1" xmlns:xlink="http://www.w3.org/1999/xlink" viewBox="0 0 512 512">
  <!-- Generator: Adobe Illustrator 29.1.0, SVG Export Plug-In . SVG Version: 2.1.0 Build 142)  -->
  <defs>
    <style>
      .st0 {
        fill: url(#Nueva_muestra_de_degradado_1);
      }
    </style>
    <linearGradient id="Nueva_muestra_de_degradado_1" data-name="Nueva muestra de degradado 1" x1="69.2" y1="69.2" x2="442.8" y2="442.9" gradientUnits="userSpaceOnUse">
      <stop offset="0" stop-color="#3c36ff"/>
      <stop offset="1" stop-color="#fe37a7"/>
    </linearGradient>
  </defs>
  <path class="st0" d="M508.9,114.2l-17.8,56.4c0,.3-.3.5-.3.8s-.2.5-.2.7c-.1.3-.3.6-.4.9,0,.2-.2.4-.3.6-.2.3-.3.5-.5.8,0,.2-.3.4-.4.6-.2.3-.3.5-.5.7-.1.3-.3.5-.5.7s-.3.4-.5.6c-.2.3-.4.5-.6.7-.2.2-.3.3-.5.5-.3.3-.5.5-.8.7,0,0-.3.3-.5.4-.3.2-.6.4-.9.6-.2.1-.4.2-.6.3-.3.2-.6.3-.9.5-.1.1-.2.1-.2.1-.1,0-.3.2-.4.2,0,0-.3.3-.5.3,0,0-.3,0-.3,0-.3.1-.6.3-.9.3-.2,0-.5.2-.7.2-.4.1-.7.2-1,.2-.2.1-.5.1-.7.1-.3,0-.7,0-1,0h-3.9c-.4,0-.8-.2-1.2-.2h-.3c-.4,0-.9-.2-1.3-.3h-.2c-.3,0-.5-.2-.8-.2l-61.2-22.6c-8.7-3.3-13.2-13-10-21.8,3.3-8.7,13-13.2,21.8-10l19.6,7.2c-26.2-39.4-64.7-69.9-110.1-86-8.8-3.1-13.4-12.8-10.3-21.6,3.1-8.8,12.8-13.4,21.6-10.3,54.6,19.3,100.6,56.7,130.8,105l5.5-17.4c2.8-8.9,12.2-13.8,21.1-11,8.8,2.9,13.6,12.3,10.8,21.1ZM182.8,463.7h-.2c-45.4-16.2-83.9-46.7-110.1-86.1l19.6,7.2c8.8,3.2,18.5-1.3,21.8-10,3.2-8.8-1.3-18.5-10-21.8l-61.2-22.6c-.3,0-.5-.2-.8-.2h-.2c-.4-.1-.9-.2-1.3-.3h-.3c-.4,0-.8-.1-1.2-.2h-3.9c-.3,0-.7,0-1,0-.2,0-.5,0-.7.1-.3,0-.6,0-1,.2-.2,0-.5,0-.7.2-.3,0-.6.2-.9.3,0,0-.2,0-.3,0-.2,0-.4.2-.5.3-.1,0-.3.1-.5.2,0,0-.1,0-.2.1-.3.2-.6.3-.9.5-.2,0-.4.2-.6.3-.3.2-.6.4-.9.6-.2.1-.4.3-.5.4-.3.2-.5.4-.8.7l-.5.5c-.2.2-.4.4-.6.7-.2.2-.3.4-.5.6s-.4.4-.5.7c-.2.2-.3.4-.5.7-.1.2-.3.4-.4.6-.2.3-.3.5-.5.8,0,.2-.2.4-.3.6,0,.3-.3.6-.4.9,0,.2-.2.4-.2.7s-.2.5-.3.8l-17.8,56.4c-2.8,8.9,2.1,18.4,11,21.2,8.9,2.8,18.4-2.1,21.2-11l5.5-17.4c30.2,48.3,76.2,85.7,130.8,105,8.8,3.1,18.5-1.5,21.6-10.3,3.1-8.8-1.5-18.5-10.3-21.6ZM231.5,205.2c0-11.9-4.8-23.5-13.2-31.9s-20-13.2-31.9-13.2h-18.8c-3,0-5.8-1.2-8-3.3-2.1-2.1-3.3-5-3.3-8s1.2-5.9,3.3-8c2.1-2.1,5-3.3,8-3.3h37.6c9.3,0,16.9-7.6,16.9-16.9s-7.6-16.9-16.9-16.9h-11.3v-5.6c0-9.3-7.6-16.9-16.9-16.9s-16.9,7.6-16.9,16.9v6.3c-9.2,1.6-17.7,5.9-24.4,12.6s-13.2,20-13.2,31.9,4.8,23.5,13.2,31.9,20,13.2,31.9,13.2h18.8c3,0,5.8,1.2,8,3.3,2.1,2.1,3.3,5,3.3,8s-1.2,5.9-3.3,8c-2.1,2.1-5,3.3-8,3.3h-37.6c-9.3,0-16.9,7.6-16.9,16.9s7.6,16.9,16.9,16.9h11.3v5.6c0,9.3,7.6,16.9,16.9,16.9s16.9-7.6,16.9-16.9v-6.3h0c9.2-1.6,17.7-5.9,24.4-12.6s13.2-20,13.2-31.9ZM487.5,335.1c0,84.1-68.3,152.4-152.4,152.4s-152.4-68.3-152.4-152.4,0-3.8,0-5.7h-5.8c-84.1,0-152.4-68.3-152.4-152.4S92.8,24.5,176.9,24.5s152.4,68.3,152.4,152.4-.1,3.9-.1,5.8c1.9-.1,3.9-.1,5.8-.1h0c84.1,0,152.4,68.4,152.4,152.5ZM215.5,289.2c.5-.2,1.1-.4,1.6-.6l2.4-.9c.6-.2,1.2-.5,1.8-.7.8-.3,1.7-.6,2.5-1,.5-.2.9-.4,1.4-.6,1-.4,2.1-.9,3.1-1.4.3-.2.7-.3,1-.5.8-.4,1.7-.9,2.5-1.3.4-.2.8-.4,1.2-.6,1-.5,2.1-1.1,3.1-1.7.3,0,.6-.3.9-.5.9-.6,1.8-1.1,2.6-1.6l.9-.6c1.1-.6,2.1-1.3,3.1-2,.3-.2.5-.4.8-.6.9-.6,1.7-1.3,2.6-1.9.2-.2.4-.3.6-.5,1-.7,2-1.5,3-2.3.2-.2.5-.4.7-.6.9-.7,1.8-1.4,2.7-2.2.2,0,.3-.2.4-.3,1-.9,2-1.7,2.9-2.6s.5-.4.7-.6c1.9-1.8,3.7-3.6,5.5-5.5.2-.2.4-.5.6-.7.9-1,1.8-1.9,2.6-2.9,0-.2.2-.3.3-.4.7-.9,1.5-1.8,2.2-2.7.2-.2.4-.5.6-.7.8-1,1.5-2,2.3-3,.2-.2.3-.4.5-.6.7-.9,1.3-1.7,1.9-2.6.2-.3.4-.5.6-.8.7-1,1.3-2.1,2-3.1.2-.3.4-.6.6-.9.5-.9,1-1.7,1.5-2.6,0-.3.3-.6.5-.9.6-1,1.1-2,1.7-3.1.2-.4.4-.8.6-1.2.5-.8.9-1.7,1.3-2.5.2-.3.3-.7.5-1,.5-1,.9-2.1,1.4-3.1.2-.5.4-.9.6-1.4.3-.8.7-1.7,1-2.5.2-.6.5-1.2.7-1.8.3-.8.6-1.6.9-2.4.2-.5.4-1.1.6-1.6.3-.9.6-1.7.9-2.6.2-.7.4-1.4.6-2.1l.6-2.1c.2-.6.3-1.2.5-1.8.3-1,.6-2.1.8-3.1,0-.7.3-1.3.4-1.9.1-.7.3-1.3.4-2,1.4-7.5,2.5-13.9,2.2-23-2.4-65.4-53.1-118.5-118.5-118.5s-118.5,53.1-118.5,118.5h0c0,65.5,53.1,118.6,118.5,118.6s15.6-.7,23-2.2c.7,0,1.3-.3,2-.4.6-.1,1.2-.3,1.8-.4,1-.3,2.1-.5,3.1-.8.6-.2,1.2-.3,1.8-.5.7-.2,1.4-.4,2.1-.6l2.1-.6c.9-.3,1.7-.6,2.6-.9ZM453.9,334.8c0-65.4-53.1-118.5-118.5-118.5s-7.4.2-11,.5c0,.4-.2.8-.3,1.2-.2.5-.3,1.1-.5,1.7-.4,1.4-.9,2.7-1.3,4.1-.2.6-.4,1.3-.6,1.9-.3.8-.5,1.5-.8,2.3-.2.7-.5,1.3-.7,1.9-.2.7-.5,1.5-.8,2.2-.3.7-.5,1.3-.8,2-.4,1-.8,2-1.2,3-.4.8-.8,1.7-1.2,2.6-.3.7-.6,1.3-.9,2-.4.7-.7,1.3-1,2s-.7,1.4-1,2c-.3.8-.7,1.5-1.1,2.2-.4.8-.8,1.5-1.2,2.3-.5.9-1.1,1.9-1.6,2.8-.3.6-.7,1.1-1,1.7,8.5-2.8,5.4-4.4,27-4.4s41.4,8.2,56.4,21.6c6.9,6.2,7.5,16.9,1.3,23.9-6.2,6.9-16.9,7.6-23.9,1.3-9-8-11.8-12.9-33.9-12.9s-40.9,14.2-47.9,33.9h47.9c9.3,0,16.9,7.6,16.9,16.9s-7.6,16.9-16.9,16.9h-47.9c7,19.8,25.8,33.9,47.9,33.9s28.6-6.5,37.9-16.9c6.2-6.9,16.9-7.5,23.9-1.3,6.9,6.2,7.5,16.9,1.3,23.9-15.5,17.3-16.3,28.2-63.1,28.2s-84.7-38-84.7-84.7,1.5-18.5,4.4-27c-.6.3-1.1.7-1.7,1-.9.5-1.8,1.1-2.8,1.6-.8.4-1.5.8-2.3,1.2-.8.4-1.5.7-2.2,1.1-.7.4-1.3.7-2,1-.7.4-1.3.7-2,1s-1.3.6-2,.9c-.9.3-1.7.7-2.6,1.1-1,.5-2,.9-3,1.3-.7.3-1.3.5-2,.8-.7.3-1.5.6-2.2.9-.7.3-1.3.5-1.9.7-.8.3-1.5.5-2.3.8-.7.2-1.3.4-1.9.6-1.4.5-2.8.9-4.2,1.3-.6.2-1.1.3-1.7.5-.4,0-.8.2-1.2.3-.3,3.7-.5,3.7-.5,11,0,65.4,53.1,118.5,118.5,118.5l.4-.3c65.4,0,118.5-53.1,118.5-118.5ZM497.9,93c0,0,.1,0,.2,0,0,0,0,0,.1,0h-.3Z"/>
</svg>