<?xml version="1.0" encoding="utf-8"?>
<!-- Generator: Adobe Illustrator 25.0.0, SVG Export Plug-In . SVG Version: 6.00 Build 0)  -->
<svg version="1.1" xmlns="http://www.w3.org/2000/svg" xmlns:xlink="http://www.w3.org/1999/xlink" x="0px" y="0px"
	 viewBox="0 0 32 32" style="enable-background:new 0 0 32 32;" xml:space="preserve">
<style type="text/css">
	.st0{fill:#424242;}
</style>
<g id="Capa_11">
</g>
<g id="Capa_2">
	<g id="_x31_0.Linkedin">
		<path class="st0" d="M31.8,31.8V20.2c0-5.7-1.2-10-7.8-10c-3.2,0-5.3,1.7-6.2,3.4h-0.1v-2.9h-6.3v21h6.5V21.3
			c0-2.8,0.5-5.4,3.9-5.4c3.3,0,3.4,3.1,3.4,5.6v10.2L31.8,31.8L31.8,31.8z"/>
		<path class="st0" d="M0.8,10.7h6.5v21H0.8L0.8,10.7z"/>
		<path class="st0" d="M4,0.2C1.9,0.2,0.2,1.9,0.2,4S1.9,7.8,4,7.8S7.8,6.1,7.8,4S6.1,0.2,4,0.2z"/>
	</g>
</g>
</svg>
