<?xml version="1.0" encoding="utf-8"?>
<!-- Generator: Adobe Illustrator 25.0.0, SVG Export Plug-In . SVG Version: 6.00 Build 0)  -->
<svg version="1.1" id="Capa_1" xmlns="http://www.w3.org/2000/svg" xmlns:xlink="http://www.w3.org/1999/xlink" x="0px" y="0px"
	 viewBox="0 0 256 35" style="enable-background:new 0 0 256 35;" xml:space="preserve">
<style type="text/css">
	.st0{fill:#FFFFFF;}
	.st1{fill:#CBFB45;}
</style>
<g>
	<path class="st0" d="M101.8,19.9c0.1-0.6,0.2-1.8,0.2-2.4c0-10-7.7-17.3-18.3-17.3c-10.6,0-18.3,7.3-18.3,17.3
		c0,10,7.7,17.2,18.3,17.2c8,0,14.1-4.3,17-10.5C101.3,22.9,101.5,21.7,101.8,19.9z M83.6,25.7c-4,0-7.3-3.1-7.3-8.2
		c0-5.1,3.2-8.2,7.3-8.2c4,0,7.3,3.1,7.3,8.2C90.9,22.6,87.7,25.7,83.6,25.7z"/>
	<path class="st0" d="M19.1,9.3c2.9,0,5.2,1.4,7.1,3.9l6.9-6.3c-3.2-4.2-8.2-6.6-14.5-6.6C8.1,0.2,0.5,7.4,0.5,17.5
		c0,10.1,7.6,17.2,18.1,17.2c6.3,0,11.4-2.4,14.5-6.6l-6.9-6.3c-1.9,2.5-4.2,3.9-7.1,3.9c-4.5,0-7.6-3.2-7.6-8.2
		C11.5,12.5,14.6,9.3,19.1,9.3z"/>
	<path class="st0" d="M64.6,13.4C64.6,5.8,58.8,1,49.8,1H34.2v33h10.9v-8.3h3l5.5,8.3h11.7l-6.8-10.2C62.4,21.8,64.6,18.2,64.6,13.4
		z M49.1,17.3h-4V9.6h4c3,0,4.4,1.5,4.4,3.9C53.6,15.9,52.1,17.3,49.1,17.3z"/>
	<path class="st0" d="M160.6,34h10.9v-8.1h4.7c9,0,14.8-4.8,14.8-12.4C191,5.8,185.2,1,176.2,1h-15.6V34z M175.5,17.3h-4V9.6h4
		c3,0,4.4,1.5,4.4,3.9C179.9,15.9,178.5,17.3,175.5,17.3z"/>
	<polygon class="st0" points="244.9,1 238.3,12.4 231.6,1 220.1,1 232.3,21.9 232.3,34 243.3,34 243.3,22 255.5,1 	"/>
	<path class="st0" d="M201.5,1l-14.2,33h11.1l2.2-5.7h12.3l2.2,5.7h11.3L212.2,1H201.5z M203.6,20.2l3.2-8.3l3.2,8.3H203.6z"/>
	<g>
		<path class="st1" d="M142,26.9c-2.2-0.6-4.2-1.4-6-2.5l-4,8.9h-6.3c1-0.8,2.2-1.3,2.9-2.3c1.3-1.9,1.9-4,1.9-6.2
			c0-1.9-0.4-3.6-1.1-4.9c-0.7-1.3-1.7-2.4-3-3.2c-1.2-0.8-2.6-1.5-4-2c-1.5-0.5-2.9-0.9-4.4-1.2c-1.5-0.3-2.8-0.6-4.1-0.8
			c-1.2-0.2-2.2-0.6-3-0.9c-0.7-0.4-1.1-0.9-1.1-1.5c0-0.4,0.2-0.8,0.5-1.2c0.3-0.3,0.8-0.6,1.5-0.8c0.7-0.2,1.7-0.3,2.9-0.3
			c1.6,0,3.3,0.2,5,0.7c1.7,0.5,3.5,1.2,5.4,2.1l3.7-8.9h9.2c-1.3,0.9-2.8,1.6-3.6,2.8c-1.3,1.9-1.9,4-1.9,6.3c0,2,0.4,3.6,1.1,5
			c0.7,1.3,1.7,2.4,3,3.2c1.2,0.8,2.6,1.5,4.1,2c1.5,0.5,3,0.9,4.4,1.2c1.5,0.3,2.8,0.6,4,0.9c1.2,0.3,2.2,0.6,3,1
			c0.7,0.4,1.1,0.9,1.1,1.6c0,0.4-0.2,0.8-0.5,1.1c-0.3,0.3-0.8,0.5-1.5,0.7c-0.7,0.2-1.6,0.2-2.9,0.2
			C146.3,27.8,144.2,27.5,142,26.9"/>
		<path class="st1" d="M160.6,10.8c-1.8-1-4-1.6-5.6-2.1c-1.7-0.4-3.4-0.7-5-0.7c-1.2,0-2.2,0.1-2.9,0.3c-0.7,0.2-1.2,0.5-1.5,0.8
			c-0.3,0.4-0.5,0.7-0.5,1.2c0,0.6,0.4,1.1,1.1,1.5c0.7,0.4,1.7,0.7,3,0.9c1.2,0.2,2.6,0.5,4.1,0.8c1.5,0.3,3,0.6,4.4,1.2
			c1.3,0.5,2.1,0.8,2.9,1.3V10.8z"/>
		<path class="st1" d="M100.6,24.3l0.3,0.2c1.8,1,3.8,1.9,6,2.5c2.2,0.6,4.3,0.9,6.4,0.9c1.2,0,2.2-0.1,2.9-0.2
			c0.7-0.2,1.2-0.4,1.5-0.7c0.3-0.3,0.5-0.7,0.5-1.1c0-0.7-0.4-1.2-1.1-1.6c-0.7-0.4-1.7-0.7-3-1c-1.2-0.3-2.6-0.6-4-0.9
			c-1.5-0.3-2.9-0.7-4.4-1.2c-1.4-0.5-2.6-1.1-3.8-1.8L100.6,24.3z"/>
	</g>
</g>
</svg>
